<svg xmlns="http://www.w3.org/2000/svg" xmlns:xlink="http://www.w3.org/1999/xlink" width="500" zoomAndPan="magnify" viewBox="0 0 375 374.999991" height="500" preserveAspectRatio="xMidYMid meet" version="1.0"><defs><g/><clipPath id="b4063cc612"><path d="M 36 229 L 361 229 L 361 363 L 36 363 Z M 36 229 " clip-rule="nonzero"/></clipPath><clipPath id="43a787d703"><path d="M 36.265625 229.898438 L 318.707031 141.59375 L 381.328125 341.886719 L 98.886719 430.1875 Z M 36.265625 229.898438 " clip-rule="nonzero"/></clipPath><clipPath id="2efefa601a"><path d="M 344.542969 247.691406 L 323.277344 273.359375 C 327.808594 265.710938 332.890625 258.371094 339.167969 252.074219 C 340.757812 250.496094 342.554688 248.882812 344.542969 247.691406 Z M 296.847656 253.753906 L 292.46875 285.515625 C 292.871094 277.4375 293.570312 269.367188 294.789062 261.402344 C 295.191406 258.792969 295.773438 256.050781 296.859375 253.757812 Z M 347.003906 250.148438 C 346.480469 253.625 344.625 257.511719 341.363281 261.914062 C 336.855469 268.007812 329.882812 274.589844 321.816406 280.535156 Z M 299.890625 257.089844 L 301.203125 272.320312 L 293.992188 299.714844 Z M 302.261719 249.386719 L 302.757812 249.84375 L 303.230469 251.234375 C 307.386719 264.308594 305.351562 285.699219 296.878906 302.214844 C 301.214844 288.894531 306.054688 268.054688 302.261719 249.386719 Z M 266.785156 280.496094 C 265.277344 286.269531 263.117188 295.5 261.496094 306.644531 C 260.460938 313.675781 258.695312 319.371094 256.882812 323.71875 C 257.515625 319.835938 257.945312 315.9375 258.359375 312.097656 L 259.15625 305.113281 C 260.128906 297.488281 261.890625 288.085938 266.792969 280.492188 Z M 269.882812 282.34375 C 270.835938 291.492188 270.625 307.734375 260.941406 322.953125 C 262.53125 318.703125 264.007812 313.429688 264.925781 307.15625 C 266.433594 296.742188 268.417969 288.054688 269.882812 282.34375 Z M 273.175781 280.804688 C 274.59375 285.105469 275.042969 290.207031 274.644531 296.878906 C 274.117188 305.328125 272.585938 311.75 269.785156 317.082031 C 268.386719 319.753906 265.898438 323.113281 262.972656 326.136719 C 274.46875 309.078125 274.320312 290.519531 273.175781 280.804688 Z M 307.878906 309.117188 C 319.519531 305.476562 332.773438 304.375 344.554688 306.078125 C 329.511719 306.503906 314.550781 308.5 305.359375 309.949219 Z M 305.425781 313.449219 C 316.015625 311.75 334.898438 309.242188 352.453125 309.453125 L 347.621094 311.304688 C 341.476562 313.226562 334.863281 313.84375 328.777344 314.109375 C 320.035156 314.5 312.40625 314.285156 305.417969 313.453125 Z M 288.871094 335.960938 C 293.167969 337.171875 297.089844 338.65625 300.769531 340.695312 C 304.992188 343.023438 308.476562 345.957031 311.117188 349.246094 C 305.015625 343.582031 296.632812 339.179688 288.871094 335.960938 Z M 280.898438 336.640625 C 290.726562 340.117188 303.480469 345.816406 310.753906 353.765625 C 304.242188 349.496094 293.710938 343 280.898438 336.640625 Z M 279.5625 339.851562 C 291.429688 345.757812 301.277344 351.730469 307.707031 355.90625 C 297.828125 351.699219 288.539062 345.90625 279.5625 339.851562 Z M 37.914062 229.382812 C 37.011719 229.667969 36.5 230.644531 36.78125 231.546875 C 43.046875 251.582031 52.816406 269.957031 65.832031 286.1875 C 101.828125 331.125 157.339844 354.210938 214.40625 347.902344 C 225.714844 346.035156 235.695312 343.734375 244.867188 340.867188 C 251.667969 338.738281 258.011719 336.277344 264.121094 333.46875 L 269.714844 337.300781 C 283.3125 346.695312 297.394531 356.394531 313.289062 361.78125 C 313.941406 362 315.410156 362.492188 317.183594 361.9375 L 317.921875 361.457031 L 317.960938 361.433594 L 317.996094 361.398438 L 318.03125 361.367188 C 318.878906 360.625 319.707031 359.160156 318.867188 356.433594 C 316.539062 348.902344 310.691406 342.25 302.417969 337.675781 C 295.136719 333.648438 286.835938 331.644531 278.941406 330.09375 L 272.765625 329.117188 C 280.480469 324.914062 287.433594 320.128906 293.582031 314.828125 L 293.625 314.851562 C 303.824219 317.316406 315.042969 318.175781 328.914062 317.578125 C 335.261719 317.285156 342.179688 316.664062 348.679688 314.632812 C 352.515625 313.429688 356.203125 311.746094 359.5625 309.347656 L 359.585938 309.339844 L 359.609375 309.324219 L 359.839844 309.144531 L 360.148438 308.640625 L 360.261719 308.417969 L 360.324219 307.964844 L 360.285156 307.804688 L 360.304688 307.664062 L 360.210938 307.367188 L 359.972656 306.949219 L 359.738281 306.632812 L 359.246094 306.347656 L 359.226562 306.316406 C 344.386719 300.414062 323.878906 300.519531 306.75 305.875 L 300.710938 308.042969 C 306.070312 302.40625 310.582031 296.320312 314.109375 289.867188 C 320.28125 286.109375 334.914062 276.457031 344.160156 263.976562 C 349.878906 256.253906 351.785156 249.679688 349.988281 243.882812 C 349.726562 243.039062 348.882812 242.535156 347.46875 242.789062 L 346.375 243.09375 C 342.429688 244.328125 339.1875 247.179688 336.734375 249.640625 C 325.921875 260.476562 318.667969 274.027344 311.675781 287.214844 L 311.648438 287.261719 C 308.3125 293.5625 304.253906 299.128906 299.835938 304.003906 C 308.761719 286.589844 310.921875 264.003906 306.523438 250.195312 C 306.011719 248.5625 305.160156 246.613281 303.132812 245.890625 C 302.230469 245.558594 301.230469 245.566406 300.042969 245.9375 L 299.785156 246.035156 L 299.679688 246.042969 L 299.234375 246.261719 L 298.472656 246.679688 C 293.683594 249.652344 292.207031 255.527344 291.386719 260.882812 C 288.648438 278.738281 288.503906 297.019531 288.394531 314.703125 C 282 319.828125 275.507812 323.8125 269.898438 326.78125 L 264.503906 329.476562 C 268.144531 325.914062 271.214844 321.832031 272.847656 318.691406 C 275.875 312.917969 277.550781 306.054688 278.097656 297.09375 C 278.433594 291.632812 278.488281 283.5625 275.191406 276.507812 C 273.972656 273.90625 272.1875 272.574219 270.160156 272.75 L 269.855469 272.773438 L 269.328125 272.910156 C 268.15625 273.277344 267.300781 274.140625 266.597656 274.980469 C 259.226562 283.6875 256.917969 295.429688 255.742188 304.679688 L 254.921875 311.714844 C 254.085938 319.496094 253.230469 327.523438 250.550781 335.027344 L 250.535156 335.292969 L 243.714844 337.585938 C 234.75 340.390625 224.984375 342.632812 213.960938 344.46875 C 158.148438 350.632812 103.792969 328.023438 68.535156 284.027344 C 55.792969 268.136719 46.21875 250.128906 40.089844 230.515625 C 39.804688 229.613281 38.835938 229.097656 37.914062 229.382812 Z M 37.914062 229.382812 " clip-rule="nonzero"/></clipPath><clipPath id="85eea0dd45"><path d="M 0.480469 0 L 324.480469 0 L 324.480469 133.640625 L 0.480469 133.640625 Z M 0.480469 0 " clip-rule="nonzero"/></clipPath><clipPath id="3453b61a3f"><path d="M 0.265625 0.898438 L 282.707031 -87.40625 L 345.328125 112.886719 L 62.886719 201.1875 Z M 0.265625 0.898438 " clip-rule="nonzero"/></clipPath><clipPath id="417ce8e8d0"><path d="M 308.542969 18.691406 L 287.277344 44.359375 C 291.808594 36.710938 296.890625 29.371094 303.167969 23.074219 C 304.757812 21.496094 306.554688 19.882812 308.542969 18.691406 Z M 260.847656 24.753906 L 256.46875 56.515625 C 256.871094 48.4375 257.570312 40.367188 258.789062 32.402344 C 259.191406 29.792969 259.773438 27.050781 260.859375 24.757812 Z M 311.003906 21.148438 C 310.480469 24.625 308.625 28.511719 305.363281 32.914062 C 300.855469 39.007812 293.882812 45.589844 285.816406 51.535156 Z M 263.890625 28.089844 L 265.203125 43.320312 L 257.992188 70.714844 Z M 266.261719 20.386719 L 266.757812 20.84375 L 267.230469 22.234375 C 271.386719 35.308594 269.351562 56.699219 260.878906 73.214844 C 265.214844 59.894531 270.054688 39.054688 266.261719 20.386719 Z M 230.785156 51.496094 C 229.277344 57.269531 227.117188 66.5 225.496094 77.644531 C 224.460938 84.675781 222.695312 90.371094 220.882812 94.71875 C 221.515625 90.835938 221.945312 86.9375 222.359375 83.097656 L 223.15625 76.113281 C 224.128906 68.488281 225.890625 59.085938 230.792969 51.492188 Z M 233.882812 53.34375 C 234.835938 62.492188 234.625 78.734375 224.941406 93.953125 C 226.53125 89.703125 228.007812 84.429688 228.925781 78.15625 C 230.433594 67.742188 232.417969 59.054688 233.882812 53.34375 Z M 237.175781 51.804688 C 238.59375 56.105469 239.042969 61.207031 238.644531 67.878906 C 238.117188 76.328125 236.585938 82.75 233.785156 88.082031 C 232.386719 90.753906 229.898438 94.113281 226.972656 97.136719 C 238.46875 80.078125 238.320312 61.519531 237.175781 51.804688 Z M 271.878906 80.117188 C 283.519531 76.476562 296.773438 75.375 308.554688 77.078125 C 293.511719 77.503906 278.550781 79.5 269.359375 80.949219 Z M 269.425781 84.449219 C 280.015625 82.75 298.898438 80.242188 316.453125 80.453125 L 311.621094 82.304688 C 305.476562 84.226562 298.863281 84.84375 292.777344 85.109375 C 284.035156 85.5 276.40625 85.285156 269.417969 84.453125 Z M 252.871094 106.960938 C 257.167969 108.171875 261.089844 109.65625 264.769531 111.695312 C 268.992188 114.023438 272.476562 116.957031 275.117188 120.246094 C 269.015625 114.582031 260.632812 110.179688 252.871094 106.960938 Z M 244.898438 107.640625 C 254.726562 111.117188 267.480469 116.816406 274.753906 124.765625 C 268.242188 120.496094 257.710938 114 244.898438 107.640625 Z M 243.5625 110.851562 C 255.429688 116.757812 265.277344 122.730469 271.707031 126.90625 C 261.828125 122.699219 252.539062 116.90625 243.5625 110.851562 Z M 1.914062 0.382812 C 1.011719 0.667969 0.5 1.644531 0.78125 2.546875 C 7.046875 22.582031 16.816406 40.957031 29.832031 57.1875 C 65.828125 102.125 121.339844 125.210938 178.40625 118.902344 C 189.714844 117.035156 199.695312 114.734375 208.867188 111.867188 C 215.667969 109.738281 222.011719 107.277344 228.121094 104.46875 L 233.714844 108.300781 C 247.3125 117.695312 261.394531 127.394531 277.289062 132.78125 C 277.941406 133 279.410156 133.492188 281.183594 132.9375 L 281.921875 132.457031 L 281.960938 132.433594 L 281.996094 132.398438 L 282.03125 132.367188 C 282.878906 131.625 283.707031 130.160156 282.867188 127.433594 C 280.539062 119.902344 274.691406 113.25 266.417969 108.675781 C 259.136719 104.648438 250.835938 102.644531 242.941406 101.09375 L 236.765625 100.117188 C 244.480469 95.914062 251.433594 91.128906 257.582031 85.828125 L 257.625 85.851562 C 267.824219 88.316406 279.042969 89.175781 292.914062 88.578125 C 299.261719 88.285156 306.179688 87.664062 312.679688 85.632812 C 316.515625 84.429688 320.203125 82.746094 323.5625 80.347656 L 323.585938 80.339844 L 323.609375 80.324219 L 323.839844 80.144531 L 324.148438 79.640625 L 324.261719 79.417969 L 324.324219 78.964844 L 324.285156 78.804688 L 324.304688 78.664062 L 324.210938 78.367188 L 323.972656 77.949219 L 323.738281 77.632812 L 323.246094 77.347656 L 323.226562 77.316406 C 308.386719 71.414062 287.878906 71.519531 270.75 76.875 L 264.710938 79.042969 C 270.070312 73.40625 274.582031 67.320312 278.109375 60.867188 C 284.28125 57.109375 298.914062 47.457031 308.160156 34.976562 C 313.878906 27.253906 315.785156 20.679688 313.988281 14.882812 C 313.726562 14.039062 312.882812 13.535156 311.46875 13.789062 L 310.375 14.09375 C 306.429688 15.328125 303.1875 18.179688 300.734375 20.640625 C 289.921875 31.476562 282.667969 45.027344 275.675781 58.214844 L 275.648438 58.261719 C 272.3125 64.5625 268.253906 70.128906 263.835938 75.003906 C 272.761719 57.589844 274.921875 35.003906 270.523438 21.195312 C 270.011719 19.5625 269.160156 17.613281 267.132812 16.890625 C 266.230469 16.558594 265.230469 16.566406 264.042969 16.9375 L 263.785156 17.035156 L 263.679688 17.042969 L 263.234375 17.261719 L 262.472656 17.679688 C 257.683594 20.652344 256.207031 26.527344 255.386719 31.882812 C 252.648438 49.738281 252.503906 68.019531 252.394531 85.703125 C 246 90.828125 239.507812 94.8125 233.898438 97.78125 L 228.503906 100.476562 C 232.144531 96.914062 235.214844 92.832031 236.847656 89.691406 C 239.875 83.917969 241.550781 77.054688 242.097656 68.09375 C 242.433594 62.632812 242.488281 54.5625 239.191406 47.507812 C 237.972656 44.90625 236.1875 43.574219 234.160156 43.75 L 233.855469 43.773438 L 233.328125 43.910156 C 232.15625 44.277344 231.300781 45.140625 230.597656 45.980469 C 223.226562 54.6875 220.917969 66.429688 219.742188 75.679688 L 218.921875 82.714844 C 218.085938 90.496094 217.230469 98.523438 214.550781 106.027344 L 214.535156 106.292969 L 207.714844 108.585938 C 198.75 111.390625 188.984375 113.632812 177.960938 115.46875 C 122.148438 121.632812 67.792969 99.023438 32.535156 55.027344 C 19.792969 39.136719 10.21875 21.128906 4.089844 1.515625 C 3.804688 0.613281 2.835938 0.0976562 1.914062 0.382812 Z M 1.914062 0.382812 " clip-rule="nonzero"/></clipPath><clipPath id="d188de9ef4"><rect x="0" width="325" y="0" height="134"/></clipPath><clipPath id="2f4a495cb0"><path d="M 262 43 L 352 43 L 352 167 L 262 167 Z M 262 43 " clip-rule="nonzero"/></clipPath><clipPath id="6dbfe54868"><path d="M 262.449219 42.824219 L 370.882812 63.566406 L 351.0625 167.164062 L 242.632812 146.417969 Z M 262.449219 42.824219 " clip-rule="nonzero"/></clipPath><clipPath id="5351c376b7"><path d="M 264.503906 43.21875 C 263.792969 43.082031 263.03125 43.417969 262.691406 44.09375 C 262.269531 44.917969 262.585938 45.929688 263.414062 46.34375 C 309.136719 69.75 340.765625 114.117188 348.03125 165.011719 C 348.128906 165.742188 348.679688 166.289062 349.546875 166.453125 L 349.921875 166.433594 C 350.621094 166.339844 351.160156 165.8125 351.320312 165.164062 L 351.351562 165 C 351.371094 164.851562 351.375 164.691406 351.347656 164.527344 C 343.9375 112.566406 311.640625 67.269531 264.804688 43.300781 Z M 264.503906 43.21875 " clip-rule="nonzero"/></clipPath><clipPath id="8b94f5d045"><path d="M 0.078125 0 L 89.601562 0 L 89.601562 123.558594 L 0.078125 123.558594 Z M 0.078125 0 " clip-rule="nonzero"/></clipPath><clipPath id="35a72c88b1"><path d="M 0.449219 -0.175781 L 108.882812 20.566406 L 89.0625 124.164062 L -19.367188 103.417969 Z M 0.449219 -0.175781 " clip-rule="nonzero"/></clipPath><clipPath id="78040f3c20"><path d="M 2.503906 0.21875 C 1.792969 0.0820312 1.03125 0.417969 0.691406 1.09375 C 0.269531 1.917969 0.585938 2.929688 1.414062 3.34375 C 47.136719 26.75 78.765625 71.117188 86.03125 122.011719 C 86.128906 122.742188 86.679688 123.289062 87.546875 123.453125 L 87.921875 123.433594 C 88.621094 123.339844 89.160156 122.8125 89.320312 122.164062 L 89.351562 122 C 89.371094 121.851562 89.375 121.691406 89.347656 121.527344 C 81.9375 69.566406 49.640625 24.269531 2.804688 0.300781 Z M 2.503906 0.21875 " clip-rule="nonzero"/></clipPath><clipPath id="750ce4ee75"><rect x="0" width="90" y="0" height="124"/></clipPath><clipPath id="d0e6886e0e"><path d="M 109.648438 94 L 268.457031 94 L 268.457031 267 L 109.648438 267 Z M 109.648438 94 " clip-rule="nonzero"/></clipPath><clipPath id="760b6dc2ef"><path d="M 181.800781 94.375 L 181.667969 94.382812 C 181.113281 94.382812 178.605469 94.546875 176.097656 94.75 C 153.574219 96.269531 131.816406 107.378906 116.96875 124.933594 C 114.382812 127.976562 109.648438 134.535156 109.648438 135.015625 C 109.683594 135.332031 111.875 137.015625 116.445312 140.179688 L 119.433594 142.257812 L 122.058594 138.574219 C 129.464844 128.097656 138.535156 120.257812 149.636719 114.742188 C 160.140625 109.5 170.785156 106.964844 182.308594 106.964844 L 187.636719 107.140625 C 220.425781 109.304688 247.800781 133.289062 254.648438 165.804688 C 256.640625 175.324219 256.675781 186.4375 254.648438 196.160156 C 250.144531 218.109375 235.578125 237.1875 215.726562 247.140625 C 211.988281 248.976562 211.351562 249.507812 206.542969 254.414062 C 203.71875 257.339844 199.460938 261.296875 197.109375 263.257812 C 194.722656 265.222656 192.847656 266.863281 192.945312 266.917969 L 193.101562 266.925781 C 194.433594 266.925781 202.800781 265.171875 206.734375 264.058594 C 233.472656 256.339844 255.515625 234.945312 264.191406 208.269531 C 267.257812 198.828125 268.484375 191.074219 268.449219 180.910156 C 268.449219 166.714844 265.65625 154.726562 259.605469 142.644531 C 254.230469 131.804688 246.792969 122.242188 238.164062 115.007812 C 223.5625 102.722656 207.167969 96.046875 188.382812 94.695312 C 185.550781 94.511719 182.808594 94.363281 181.789062 94.363281 Z M 181.800781 94.375 " clip-rule="nonzero"/></clipPath><clipPath id="c6df7f9dd5"><path d="M 0.648438 0.320312 L 159.457031 0.320312 L 159.457031 173 L 0.648438 173 Z M 0.648438 0.320312 " clip-rule="nonzero"/></clipPath><clipPath id="8420d17eb1"><path d="M 72.800781 0.375 L 72.667969 0.382812 C 72.113281 0.382812 69.605469 0.546875 67.097656 0.75 C 44.574219 2.269531 22.816406 13.378906 7.96875 30.933594 C 5.382812 33.976562 0.648438 40.535156 0.648438 41.015625 C 0.683594 41.332031 2.875 43.015625 7.445312 46.179688 L 10.433594 48.257812 L 13.058594 44.574219 C 20.464844 34.097656 29.535156 26.257812 40.636719 20.742188 C 51.140625 15.5 61.785156 12.964844 73.308594 12.964844 L 78.636719 13.140625 C 111.425781 15.304688 138.800781 39.289062 145.648438 71.804688 C 147.640625 81.324219 147.675781 92.4375 145.648438 102.160156 C 141.144531 124.109375 126.578125 143.1875 106.726562 153.140625 C 102.988281 154.976562 102.351562 155.507812 97.542969 160.414062 C 94.71875 163.339844 90.460938 167.296875 88.109375 169.257812 C 85.722656 171.222656 83.847656 172.863281 83.945312 172.917969 L 84.101562 172.925781 C 85.433594 172.925781 93.800781 171.171875 97.734375 170.058594 C 124.472656 162.339844 146.515625 140.945312 155.191406 114.269531 C 158.257812 104.828125 159.484375 97.074219 159.449219 86.910156 C 159.449219 72.714844 156.65625 60.726562 150.605469 48.644531 C 145.230469 37.804688 137.792969 28.242188 129.164062 21.007812 C 114.5625 8.722656 98.167969 2.046875 79.382812 0.695312 C 76.550781 0.511719 73.808594 0.363281 72.789062 0.363281 Z M 72.800781 0.375 " clip-rule="nonzero"/></clipPath><clipPath id="3f00df2922"><rect x="0" width="160" y="0" height="173"/></clipPath><clipPath id="920780c701"><path d="M 91.296875 134.035156 L 229.015625 134.035156 L 229.015625 280.898438 L 91.296875 280.898438 Z M 91.296875 134.035156 " clip-rule="nonzero"/></clipPath><clipPath id="dac9b197b8"><path d="M 91.300781 134.035156 L 91.296875 134.046875 C 91.296875 134.597656 94.675781 141.042969 96.753906 144.363281 C 102.515625 153.757812 112 164.207031 120.4375 170.523438 C 140.019531 185.167969 164.542969 193.804688 193.246094 196.25 L 201.050781 196.890625 L 200.292969 201.285156 C 195.71875 229.132812 177.523438 253.816406 148.621094 271.503906 C 145.191406 273.617188 136.195312 278.300781 130.984375 280.625 L 132.300781 280.421875 C 135.5625 279.90625 144.394531 277.824219 148.820312 276.539062 C 163.226562 272.378906 176.207031 265.980469 187.476562 257.457031 C 192.527344 253.625 200.804688 245.539062 204.785156 240.578125 C 217.332031 224.941406 225.488281 205.976562 228.3125 186.007812 C 228.792969 182.652344 229.109375 179.808594 228.976562 179.710938 L 228.792969 179.695312 C 228.355469 179.695312 227.25 179.871094 226.046875 180.125 C 219.796875 181.484375 210.148438 182.300781 201.820312 182.300781 C 198.636719 182.300781 195.648438 182.183594 193.121094 181.929688 C 165.375 179.203125 135.519531 166.964844 107.808594 146.960938 C 101.96875 142.726562 97.945312 139.605469 93.804688 135.964844 C 92.5 134.871094 91.4375 134.035156 91.300781 134.035156 Z M 91.300781 134.035156 " clip-rule="nonzero"/></clipPath><clipPath id="59e488c7ed"><path d="M 0.296875 0.0351562 L 138.015625 0.0351562 L 138.015625 146.800781 L 0.296875 146.800781 Z M 0.296875 0.0351562 " clip-rule="nonzero"/></clipPath><clipPath id="7a393d9083"><path d="M 0.300781 0.0351562 L 0.296875 0.046875 C 0.296875 0.597656 3.675781 7.042969 5.753906 10.363281 C 11.515625 19.757812 21 30.207031 29.4375 36.523438 C 49.019531 51.167969 73.542969 59.804688 102.246094 62.25 L 110.050781 62.890625 L 109.292969 67.285156 C 104.71875 95.132812 86.523438 119.816406 57.621094 137.503906 C 54.191406 139.617188 45.195312 144.300781 39.984375 146.625 L 41.300781 146.421875 C 44.5625 145.90625 53.394531 143.824219 57.820312 142.539062 C 72.226562 138.378906 85.207031 131.980469 96.476562 123.457031 C 101.527344 119.625 109.804688 111.539062 113.785156 106.578125 C 126.332031 90.941406 134.488281 71.976562 137.3125 52.007812 C 137.792969 48.652344 138.109375 45.808594 137.976562 45.710938 L 137.792969 45.695312 C 137.355469 45.695312 136.25 45.871094 135.046875 46.125 C 128.796875 47.484375 119.148438 48.300781 110.820312 48.300781 C 107.636719 48.300781 104.648438 48.183594 102.121094 47.929688 C 74.375 45.203125 44.519531 32.964844 16.808594 12.960938 C 10.96875 8.726562 6.945312 5.605469 2.804688 1.964844 C 1.5 0.871094 0.4375 0.0351562 0.300781 0.0351562 Z M 0.300781 0.0351562 " clip-rule="nonzero"/></clipPath><clipPath id="16f40a0d3a"><rect x="0" width="139" y="0" height="147"/></clipPath><clipPath id="4b315cfc45"><path d="M 172.863281 147.707031 L 244.847656 147.707031 L 244.847656 171.921875 L 172.863281 171.921875 Z M 172.863281 147.707031 " clip-rule="nonzero"/></clipPath><clipPath id="b62c3c1c54"><path d="M 217.070312 147.707031 C 213.699219 147.707031 210.613281 147.835938 208.929688 148.101562 C 195.109375 150.414062 184.394531 155.722656 175.988281 164.382812 C 172.007812 168.445312 172.007812 168.523438 174.996094 169.050781 C 181.25 170.125 188.5 171.082031 193.796875 171.523438 C 196.417969 171.734375 199.941406 171.835938 203.609375 171.835938 C 210.40625 171.835938 217.707031 171.496094 220.679688 170.925781 C 223.503906 170.410156 229.722656 168.777344 230.152344 168.453125 C 230.238281 168.417969 230.511719 167.214844 230.828125 165.777344 C 232.230469 159.042969 236.375 154.929688 242.382812 154.371094 L 244.769531 154.125 L 241.585938 152.492188 C 237.957031 150.609375 234.492188 149.417969 230.238281 148.496094 C 228.144531 148.089844 223.863281 147.8125 219.578125 147.730469 Z M 217.070312 147.707031 " clip-rule="nonzero"/></clipPath><clipPath id="6eb19cbb78"><path d="M 0.863281 0.707031 L 72.800781 0.707031 L 72.800781 24.839844 L 0.863281 24.839844 Z M 0.863281 0.707031 " clip-rule="nonzero"/></clipPath><clipPath id="0f4eaf1dc7"><path d="M 45.070312 0.707031 C 41.699219 0.707031 38.613281 0.835938 36.929688 1.101562 C 23.109375 3.414062 12.394531 8.722656 3.988281 17.382812 C 0.0078125 21.445312 0.0078125 21.523438 2.996094 22.050781 C 9.25 23.125 16.5 24.082031 21.796875 24.523438 C 24.417969 24.734375 27.941406 24.835938 31.609375 24.835938 C 38.40625 24.835938 45.707031 24.496094 48.679688 23.925781 C 51.503906 23.410156 57.722656 21.777344 58.152344 21.453125 C 58.238281 21.417969 58.511719 20.214844 58.828125 18.777344 C 60.230469 12.042969 64.375 7.929688 70.382812 7.371094 L 72.769531 7.125 L 69.585938 5.492188 C 65.957031 3.609375 62.492188 2.417969 58.238281 1.496094 C 56.144531 1.089844 51.863281 0.8125 47.578125 0.730469 Z M 45.070312 0.707031 " clip-rule="nonzero"/></clipPath><clipPath id="b327afe361"><rect x="0" width="73" y="0" height="25"/></clipPath><clipPath id="beeed4898c"><path d="M 85.003906 156.796875 L 185.988281 156.796875 L 185.988281 267.253906 L 85.003906 267.253906 Z M 85.003906 156.796875 " clip-rule="nonzero"/></clipPath><clipPath id="86f0b8a3ca"><path d="M 85.003906 156.796875 L 85.003906 156.804688 C 85.003906 157.679688 87.871094 164.84375 89.574219 168.28125 C 98.011719 185.179688 112.730469 198.984375 133.410156 209.433594 C 140.53125 213.03125 151.867188 217.273438 159.300781 219.117188 L 161.054688 219.5625 L 160.769531 221.246094 C 160.339844 223.691406 158.742188 229.164062 157.113281 233.691406 C 153.367188 243.941406 145.371094 256.9375 137.777344 265.027344 C 136.671875 266.1875 135.910156 267.144531 136.066406 267.144531 C 136.863281 267.144531 144.894531 262.667969 148.4375 260.300781 C 165.625 248.699219 179.3125 229.890625 185.234375 209.601562 L 185.988281 207.121094 L 183.320312 207.121094 C 179.777344 207.121094 170.675781 206.113281 164.75 205.113281 C 143.984375 201.542969 123.34375 192.257812 106.875 179.058594 C 101.234375 174.527344 92.355469 165.800781 88.347656 160.722656 C 86.574219 158.515625 85.101562 156.796875 85.003906 156.796875 Z M 85.003906 156.796875 " clip-rule="nonzero"/></clipPath><clipPath id="70396104bf"><path d="M 0.00390625 0.796875 L 100.988281 0.796875 L 100.988281 111.253906 L 0.00390625 111.253906 Z M 0.00390625 0.796875 " clip-rule="nonzero"/></clipPath><clipPath id="d2f708d756"><path d="M 0.00390625 0.796875 L 0.00390625 0.804688 C 0.00390625 1.679688 2.871094 8.84375 4.574219 12.28125 C 13.011719 29.179688 27.730469 42.984375 48.410156 53.433594 C 55.53125 57.03125 66.867188 61.273438 74.300781 63.117188 L 76.054688 63.5625 L 75.769531 65.246094 C 75.339844 67.691406 73.742188 73.164062 72.113281 77.691406 C 68.367188 87.941406 60.371094 100.9375 52.777344 109.027344 C 51.671875 110.1875 50.910156 111.144531 51.066406 111.144531 C 51.863281 111.144531 59.894531 106.667969 63.4375 104.300781 C 80.625 92.699219 94.3125 73.890625 100.234375 53.601562 L 100.988281 51.121094 L 98.320312 51.121094 C 94.777344 51.121094 85.675781 50.113281 79.75 49.113281 C 58.984375 45.542969 38.34375 36.257812 21.875 23.058594 C 16.234375 18.527344 7.355469 9.800781 3.347656 4.722656 C 1.574219 2.515625 0.101562 0.796875 0.00390625 0.796875 Z M 0.00390625 0.796875 " clip-rule="nonzero"/></clipPath><clipPath id="1b0f2434d9"><rect x="0" width="101" y="0" height="112"/></clipPath><clipPath id="07eecede77"><path d="M 98.199219 197.921875 L 140.914062 197.921875 L 140.914062 252.484375 L 98.199219 252.484375 Z M 98.199219 197.921875 " clip-rule="nonzero"/></clipPath><clipPath id="3a22f04331"><path d="M 98.226562 197.921875 L 98.199219 198.007812 C 98.199219 200.808594 102.574219 213.898438 105.441406 219.703125 C 111.28125 231.472656 122.425781 244.5625 132.527344 251.484375 C 133.351562 252.050781 133.78125 252.464844 134.203125 252.464844 C 134.929688 252.464844 135.625 251.238281 138.210938 247.402344 C 139.648438 245.289062 140.878906 243.28125 140.914062 242.957031 C 140.914062 242.679688 139.367188 241.160156 137.371094 239.636719 C 132.757812 236.03125 125.761719 228.667969 122.382812 223.90625 C 120.945312 221.824219 118.640625 218.019531 117.332031 215.453125 C 115.105469 211.171875 114.710938 210.691406 112.632812 209.289062 C 109.179688 207.015625 103.925781 202.816406 100.902344 199.9375 C 99.542969 198.660156 98.566406 197.921875 98.226562 197.921875 Z M 98.226562 197.921875 " clip-rule="nonzero"/></clipPath><clipPath id="e83a6832c7"><path d="M 0.199219 0.921875 L 42.914062 0.921875 L 42.914062 55.480469 L 0.199219 55.480469 Z M 0.199219 0.921875 " clip-rule="nonzero"/></clipPath><clipPath id="8c895c237f"><path d="M 0.226562 0.921875 L 0.199219 1.007812 C 0.199219 3.808594 4.574219 16.898438 7.441406 22.703125 C 13.28125 34.472656 24.425781 47.5625 34.527344 54.484375 C 35.351562 55.050781 35.78125 55.464844 36.203125 55.464844 C 36.929688 55.464844 37.625 54.238281 40.210938 50.402344 C 41.648438 48.289062 42.878906 46.28125 42.914062 45.957031 C 42.914062 45.679688 41.367188 44.160156 39.371094 42.636719 C 34.757812 39.03125 27.761719 31.667969 24.382812 26.90625 C 22.945312 24.824219 20.640625 21.019531 19.332031 18.453125 C 17.105469 14.171875 16.710938 13.691406 14.632812 12.289062 C 11.179688 10.015625 5.925781 5.816406 2.902344 2.9375 C 1.542969 1.660156 0.566406 0.921875 0.226562 0.921875 Z M 0.226562 0.921875 " clip-rule="nonzero"/></clipPath><clipPath id="e33081a2d9"><rect x="0" width="43" y="0" height="56"/></clipPath><clipPath id="0ae27b2a7b"><rect x="0" width="264" y="0" height="225"/></clipPath><clipPath id="d75b323c0f"><rect x="0" width="375" y="0" height="375"/></clipPath></defs><rect x="-37.5" width="450" fill="#ffffff" y="-37.499999" height="449.999989" fill-opacity="1"/><rect x="-37.5" width="450" fill="#7f7537" y="-37.499999" height="449.999989" fill-opacity="1"/><g transform="matrix(1, 0, 0, 1, 0, 0)"><g clip-path="url(#d75b323c0f)"><g clip-path="url(#b4063cc612)"><g clip-path="url(#43a787d703)"><g clip-path="url(#2efefa601a)"><g transform="matrix(1, 0, 0, 1, 36, 229)"><g clip-path="url(#d188de9ef4)"><g clip-path="url(#85eea0dd45)"><g clip-path="url(#3453b61a3f)"><g clip-path="url(#417ce8e8d0)"><path fill="#ebe5c1" d="M 0.265625 0.898438 L 281.925781 -87.160156 L 344.542969 113.128906 L 62.886719 201.1875 Z M 0.265625 0.898438 " fill-opacity="1" fill-rule="nonzero"/></g></g></g></g></g></g></g></g><g clip-path="url(#2f4a495cb0)"><g clip-path="url(#6dbfe54868)"><g clip-path="url(#5351c376b7)"><g transform="matrix(1, 0, 0, 1, 262, 43)"><g clip-path="url(#750ce4ee75)"><g clip-path="url(#8b94f5d045)"><g clip-path="url(#35a72c88b1)"><g clip-path="url(#78040f3c20)"><path fill="#ebe5c1" d="M 0.851562 -0.0976562 L 108.882812 20.566406 L 89.140625 123.757812 L -18.886719 103.09375 Z M 0.851562 -0.0976562 " fill-opacity="1" fill-rule="nonzero"/></g></g></g></g></g></g></g></g><g clip-path="url(#d0e6886e0e)"><g clip-path="url(#760b6dc2ef)"><g transform="matrix(1, 0, 0, 1, 109, 94)"><g clip-path="url(#3f00df2922)"><g clip-path="url(#c6df7f9dd5)"><g clip-path="url(#8420d17eb1)"><path fill="#ebe5c1" d="M 0.648438 0.375 L 159.457031 0.375 L 159.457031 172.832031 L 0.648438 172.832031 Z M 0.648438 0.375 " fill-opacity="1" fill-rule="nonzero"/></g></g></g></g></g></g><g clip-path="url(#920780c701)"><g clip-path="url(#dac9b197b8)"><g transform="matrix(1, 0, 0, 1, 91, 134)"><g clip-path="url(#16f40a0d3a)"><g clip-path="url(#59e488c7ed)"><g clip-path="url(#7a393d9083)"><path fill="#ebe5c1" d="M 0.296875 0.0351562 L 138.015625 0.0351562 L 138.015625 146.359375 L 0.296875 146.359375 Z M 0.296875 0.0351562 " fill-opacity="1" fill-rule="nonzero"/></g></g></g></g></g></g><g clip-path="url(#4b315cfc45)"><g clip-path="url(#b62c3c1c54)"><g transform="matrix(1, 0, 0, 1, 172, 147)"><g clip-path="url(#b327afe361)"><g clip-path="url(#6eb19cbb78)"><g clip-path="url(#0f4eaf1dc7)"><path fill="#ebe5c1" d="M 0.863281 0.707031 L 72.753906 0.707031 L 72.753906 24.828125 L 0.863281 24.828125 Z M 0.863281 0.707031 " fill-opacity="1" fill-rule="nonzero"/></g></g></g></g></g></g><g clip-path="url(#beeed4898c)"><g clip-path="url(#86f0b8a3ca)"><g transform="matrix(1, 0, 0, 1, 85, 156)"><g clip-path="url(#1b0f2434d9)"><g clip-path="url(#70396104bf)"><g clip-path="url(#d2f708d756)"><path fill="#ebe5c1" d="M 0.00390625 0.796875 L 100.988281 0.796875 L 100.988281 111.253906 L 0.00390625 111.253906 Z M 0.00390625 0.796875 " fill-opacity="1" fill-rule="nonzero"/></g></g></g></g></g></g><g clip-path="url(#07eecede77)"><g clip-path="url(#3a22f04331)"><g transform="matrix(1, 0, 0, 1, 98, 197)"><g clip-path="url(#e33081a2d9)"><g clip-path="url(#e83a6832c7)"><g clip-path="url(#8c895c237f)"><path fill="#ebe5c1" d="M 0.199219 0.921875 L 42.914062 0.921875 L 42.914062 55.484375 L 0.199219 55.484375 Z M 0.199219 0.921875 " fill-opacity="1" fill-rule="nonzero"/></g></g></g></g></g></g><g transform="matrix(1, 0, 0, 1, 0, 0)"><g clip-path="url(#0ae27b2a7b)"><g fill="#ebe5c1" fill-opacity="1"><g transform="translate(37.402158, 210.761761)"><g><path d="M -10.65625 0.09375 C -10.601562 0.5625 -10.847656 0.851562 -11.390625 0.96875 C -11.941406 1.09375 -12.648438 1.203125 -13.515625 1.296875 L -15.265625 1.484375 C -15.671875 1.535156 -16.039062 1.457031 -16.375 1.25 C -16.707031 1.050781 -16.894531 0.757812 -16.9375 0.375 C -17.03125 -0.507812 -17.097656 -1.441406 -17.140625 -2.421875 C -17.179688 -3.398438 -17.289062 -4.695312 -17.46875 -6.3125 C -17.632812 -7.90625 -17.804688 -9.179688 -17.984375 -10.140625 C -18.160156 -11.097656 -18.296875 -12.015625 -18.390625 -12.890625 C -18.429688 -13.285156 -18.304688 -13.597656 -18.015625 -13.828125 C -17.734375 -14.066406 -17.390625 -14.210938 -16.984375 -14.265625 L -15.640625 -14.40625 C -15.054688 -14.46875 -14.507812 -14.519531 -14 -14.5625 C -13.5 -14.613281 -13.078125 -14.59375 -12.734375 -14.5 C -12.398438 -14.40625 -12.21875 -14.191406 -12.1875 -13.859375 C -12.132812 -13.453125 -12.304688 -13.070312 -12.703125 -12.71875 C -13.109375 -12.375 -13.570312 -12.050781 -14.09375 -11.75 C -14.625 -11.445312 -15.085938 -11.144531 -15.484375 -10.84375 C -15.890625 -10.539062 -16.070312 -10.207031 -16.03125 -9.84375 C -15.976562 -9.351562 -15.703125 -9.132812 -15.203125 -9.1875 L -5.4375 -10.25 C -4.675781 -10.332031 -4.097656 -10.453125 -3.703125 -10.609375 C -3.316406 -10.765625 -3.035156 -10.925781 -2.859375 -11.09375 C -2.691406 -11.269531 -2.554688 -11.421875 -2.453125 -11.546875 C -2.347656 -11.671875 -2.175781 -11.75 -1.9375 -11.78125 C -1.601562 -11.8125 -1.363281 -11.703125 -1.21875 -11.453125 C -1.070312 -11.210938 -0.976562 -10.90625 -0.9375 -10.53125 C -0.894531 -10.101562 -0.878906 -9.660156 -0.890625 -9.203125 C -0.910156 -8.753906 -0.90625 -8.363281 -0.875 -8.03125 C -0.84375 -7.695312 -0.765625 -7.304688 -0.640625 -6.859375 C -0.523438 -6.410156 -0.445312 -5.988281 -0.40625 -5.59375 C -0.363281 -5.207031 -0.382812 -4.878906 -0.46875 -4.609375 C -0.5625 -4.347656 -0.773438 -4.203125 -1.109375 -4.171875 C -1.347656 -4.140625 -1.53125 -4.171875 -1.65625 -4.265625 C -1.789062 -4.367188 -1.957031 -4.488281 -2.15625 -4.625 C -2.363281 -4.769531 -2.671875 -4.875 -3.078125 -4.9375 C -3.492188 -5 -4.082031 -4.988281 -4.84375 -4.90625 L -14.609375 -3.84375 C -15.109375 -3.789062 -15.332031 -3.519531 -15.28125 -3.03125 C -15.25 -2.675781 -15.003906 -2.390625 -14.546875 -2.171875 C -14.085938 -1.953125 -13.566406 -1.75 -12.984375 -1.5625 C -12.410156 -1.382812 -11.890625 -1.164062 -11.421875 -0.90625 C -10.960938 -0.65625 -10.707031 -0.320312 -10.65625 0.09375 Z M 2.6875 -6.125 C 2.050781 -6.050781 1.472656 -6.222656 0.953125 -6.640625 C 0.441406 -7.054688 0.148438 -7.585938 0.078125 -8.234375 C 0.00390625 -8.898438 0.1875 -9.484375 0.625 -9.984375 C 1.0625 -10.492188 1.734375 -10.796875 2.640625 -10.890625 C 3.140625 -10.953125 3.660156 -10.914062 4.203125 -10.78125 C 4.753906 -10.644531 5.21875 -10.40625 5.59375 -10.0625 C 5.976562 -9.71875 6.203125 -9.242188 6.265625 -8.640625 C 6.335938 -8.015625 6.207031 -7.679688 5.875 -7.640625 C 5.75 -7.628906 5.6875 -7.710938 5.6875 -7.890625 C 5.6875 -8.066406 5.625 -8.265625 5.5 -8.484375 C 5.332031 -8.710938 5.164062 -8.835938 5 -8.859375 C 4.84375 -8.878906 4.773438 -8.8125 4.796875 -8.65625 C 4.859375 -7.84375 4.679688 -7.234375 4.265625 -6.828125 C 3.847656 -6.429688 3.320312 -6.195312 2.6875 -6.125 Z M 2.6875 -6.125 "/></g></g></g><g fill="#ebe5c1" fill-opacity="1"><g transform="translate(35.478994, 181.21069)"><g><path d="M 0.5625 -4.3125 C 0.457031 -3.0625 0.015625 -2.164062 -0.765625 -1.625 C -1.554688 -1.09375 -2.457031 -0.867188 -3.46875 -0.953125 C -4.957031 -1.078125 -6.082031 -1.722656 -6.84375 -2.890625 C -7.601562 -4.066406 -8.097656 -5.5625 -8.328125 -7.375 C -8.546875 -9.082031 -9.035156 -9.96875 -9.796875 -10.03125 C -10.085938 -10.050781 -10.378906 -9.953125 -10.671875 -9.734375 C -10.960938 -9.515625 -11.132812 -9.109375 -11.1875 -8.515625 C -11.226562 -7.921875 -11.101562 -7.421875 -10.8125 -7.015625 C -10.53125 -6.609375 -10.195312 -6.242188 -9.8125 -5.921875 C -9.425781 -5.597656 -9.082031 -5.25 -8.78125 -4.875 C -8.488281 -4.507812 -8.367188 -4.035156 -8.421875 -3.453125 C -8.453125 -3.085938 -8.609375 -2.773438 -8.890625 -2.515625 C -9.179688 -2.265625 -9.519531 -2.15625 -9.90625 -2.1875 C -10.65625 -2.25 -11.265625 -2.597656 -11.734375 -3.234375 C -12.203125 -3.867188 -12.53125 -4.679688 -12.71875 -5.671875 C -12.90625 -6.671875 -12.957031 -7.726562 -12.875 -8.84375 C -12.769531 -10.070312 -12.476562 -11.164062 -12 -12.125 C -11.53125 -13.082031 -10.816406 -13.820312 -9.859375 -14.34375 C -8.910156 -14.875 -7.644531 -15.078125 -6.0625 -14.953125 L -3.109375 -14.703125 C -2.335938 -14.640625 -1.75 -14.648438 -1.34375 -14.734375 C -0.9375 -14.816406 -0.632812 -14.925781 -0.4375 -15.0625 C -0.238281 -15.207031 -0.0703125 -15.328125 0.0625 -15.421875 C 0.195312 -15.523438 0.382812 -15.566406 0.625 -15.546875 C 0.957031 -15.523438 1.171875 -15.40625 1.265625 -15.1875 C 1.367188 -14.976562 1.40625 -14.722656 1.375 -14.421875 C 1.351562 -14.085938 1.289062 -13.722656 1.1875 -13.328125 C 1.09375 -12.929688 1.03125 -12.566406 1 -12.234375 C 0.96875 -11.878906 0.957031 -11.566406 0.96875 -11.296875 C 0.976562 -11.035156 1 -10.757812 1.03125 -10.46875 C 1.039062 -10.101562 0.96875 -9.785156 0.8125 -9.515625 C 0.65625 -9.253906 0.394531 -9.117188 0.03125 -9.109375 C -0.320312 -9.109375 -0.5625 -9.066406 -0.6875 -8.984375 C -0.8125 -8.910156 -0.878906 -8.804688 -0.890625 -8.671875 C -0.910156 -8.421875 -0.785156 -8.09375 -0.515625 -7.6875 C -0.253906 -7.28125 0 -6.789062 0.25 -6.21875 C 0.507812 -5.65625 0.613281 -5.019531 0.5625 -4.3125 Z M -4.421875 -6.234375 C -3.773438 -6.171875 -3.300781 -6.289062 -3 -6.59375 C -2.695312 -6.894531 -2.523438 -7.257812 -2.484375 -7.6875 C -2.441406 -8.25 -2.644531 -8.691406 -3.09375 -9.015625 C -3.539062 -9.347656 -4.085938 -9.539062 -4.734375 -9.59375 L -6.328125 -9.71875 C -6.921875 -9.769531 -7.101562 -9.503906 -6.875 -8.921875 C -6.71875 -8.554688 -6.550781 -8.171875 -6.375 -7.765625 C -6.195312 -7.367188 -5.960938 -7.023438 -5.671875 -6.734375 C -5.390625 -6.441406 -4.972656 -6.273438 -4.421875 -6.234375 Z M -4.421875 -6.234375 "/></g></g></g><g fill="#ebe5c1" fill-opacity="1"><g transform="translate(39.181879, 152.088794)"><g><path d="M -0.546875 -0.484375 C -0.773438 -0.546875 -0.929688 -0.648438 -1.015625 -0.796875 C -1.109375 -0.941406 -1.222656 -1.109375 -1.359375 -1.296875 C -1.503906 -1.492188 -1.753906 -1.703125 -2.109375 -1.921875 C -2.460938 -2.140625 -3.007812 -2.347656 -3.75 -2.546875 C -4.75 -2.816406 -5.46875 -3.015625 -5.90625 -3.140625 C -6.34375 -3.273438 -6.664062 -3.367188 -6.875 -3.421875 C -7.082031 -3.472656 -7.3125 -3.535156 -7.5625 -3.609375 C -8.144531 -3.765625 -8.570312 -3.78125 -8.84375 -3.65625 C -9.113281 -3.539062 -9.335938 -3.40625 -9.515625 -3.25 C -9.691406 -3.09375 -9.921875 -3.054688 -10.203125 -3.140625 C -10.523438 -3.222656 -10.71875 -3.390625 -10.78125 -3.640625 C -10.84375 -3.890625 -10.863281 -4.222656 -10.84375 -4.640625 C -10.820312 -5.066406 -10.828125 -5.585938 -10.859375 -6.203125 C -10.941406 -6.960938 -11.046875 -7.492188 -11.171875 -7.796875 C -11.304688 -8.109375 -11.421875 -8.347656 -11.515625 -8.515625 C -11.609375 -8.679688 -11.617188 -8.90625 -11.546875 -9.1875 C -11.441406 -9.570312 -11.195312 -9.78125 -10.8125 -9.8125 C -10.425781 -9.851562 -10.003906 -9.8125 -9.546875 -9.6875 L -9.40625 -9.640625 C -8.875 -9.503906 -8.609375 -9.445312 -8.609375 -9.46875 C -8.617188 -9.488281 -8.820312 -9.703125 -9.21875 -10.109375 C -9.75 -10.640625 -10.09375 -11.273438 -10.25 -12.015625 C -10.40625 -12.765625 -10.398438 -13.441406 -10.234375 -14.046875 C -9.910156 -15.222656 -9.445312 -15.910156 -8.84375 -16.109375 C -8.238281 -16.316406 -7.503906 -16.128906 -6.640625 -15.546875 C -5.929688 -15.078125 -5.457031 -14.703125 -5.21875 -14.421875 C -4.988281 -14.148438 -4.898438 -13.910156 -4.953125 -13.703125 C -5.015625 -13.492188 -5.207031 -13.296875 -5.53125 -13.109375 C -5.863281 -12.929688 -6.191406 -12.71875 -6.515625 -12.46875 C -6.847656 -12.21875 -7.078125 -11.867188 -7.203125 -11.421875 C -7.273438 -11.160156 -7.269531 -10.832031 -7.1875 -10.4375 C -7.113281 -10.039062 -6.882812 -9.648438 -6.5 -9.265625 C -6.113281 -8.890625 -5.515625 -8.59375 -4.703125 -8.375 L -2.34375 -7.734375 C -1.601562 -7.535156 -1.023438 -7.429688 -0.609375 -7.421875 C -0.203125 -7.421875 0.109375 -7.472656 0.328125 -7.578125 C 0.554688 -7.679688 0.742188 -7.769531 0.890625 -7.84375 C 1.035156 -7.914062 1.222656 -7.921875 1.453125 -7.859375 C 1.773438 -7.765625 1.960938 -7.582031 2.015625 -7.3125 C 2.066406 -7.039062 2.039062 -6.722656 1.9375 -6.359375 C 1.820312 -5.953125 1.671875 -5.535156 1.484375 -5.109375 C 1.304688 -4.691406 1.171875 -4.320312 1.078125 -4 C 0.992188 -3.675781 0.925781 -3.285156 0.875 -2.828125 C 0.820312 -2.367188 0.742188 -1.945312 0.640625 -1.5625 C 0.535156 -1.195312 0.390625 -0.898438 0.203125 -0.671875 C 0.0234375 -0.453125 -0.222656 -0.390625 -0.546875 -0.484375 Z M -0.546875 -0.484375 "/></g></g></g><g fill="#ebe5c1" fill-opacity="1"><g transform="translate(47.481536, 125.872408)"><g><path d="M 2.0625 -3.828125 C 1.519531 -2.691406 0.789062 -2.015625 -0.125 -1.796875 C -1.039062 -1.578125 -1.960938 -1.691406 -2.890625 -2.140625 C -4.234375 -2.785156 -5.050781 -3.789062 -5.34375 -5.15625 C -5.632812 -6.53125 -5.566406 -8.101562 -5.140625 -9.875 C -4.722656 -11.550781 -4.859375 -12.550781 -5.546875 -12.875 C -5.804688 -13 -6.113281 -13.007812 -6.46875 -12.90625 C -6.820312 -12.800781 -7.128906 -12.484375 -7.390625 -11.953125 C -7.648438 -11.410156 -7.71875 -10.898438 -7.59375 -10.421875 C -7.46875 -9.941406 -7.28125 -9.476562 -7.03125 -9.03125 C -6.78125 -8.59375 -6.582031 -8.148438 -6.4375 -7.703125 C -6.300781 -7.253906 -6.359375 -6.769531 -6.609375 -6.25 C -6.773438 -5.90625 -7.035156 -5.664062 -7.390625 -5.53125 C -7.753906 -5.40625 -8.113281 -5.425781 -8.46875 -5.59375 C -9.132812 -5.914062 -9.570312 -6.460938 -9.78125 -7.234375 C -10 -8.003906 -10.015625 -8.882812 -9.828125 -9.875 C -9.648438 -10.863281 -9.320312 -11.863281 -8.84375 -12.875 C -8.3125 -13.976562 -7.648438 -14.894531 -6.859375 -15.625 C -6.078125 -16.351562 -5.144531 -16.789062 -4.0625 -16.9375 C -2.988281 -17.082031 -1.738281 -16.8125 -0.3125 -16.125 L 2.359375 -14.84375 C 3.054688 -14.507812 3.609375 -14.304688 4.015625 -14.234375 C 4.429688 -14.171875 4.757812 -14.164062 5 -14.21875 C 5.238281 -14.28125 5.4375 -14.332031 5.59375 -14.375 C 5.75 -14.425781 5.9375 -14.398438 6.15625 -14.296875 C 6.457031 -14.148438 6.613281 -13.957031 6.625 -13.71875 C 6.644531 -13.488281 6.59375 -13.234375 6.46875 -12.953125 C 6.320312 -12.660156 6.128906 -12.347656 5.890625 -12.015625 C 5.648438 -11.679688 5.460938 -11.363281 5.328125 -11.0625 C 5.171875 -10.75 5.046875 -10.460938 4.953125 -10.203125 C 4.859375 -9.941406 4.78125 -9.675781 4.71875 -9.40625 C 4.59375 -9.0625 4.40625 -8.789062 4.15625 -8.59375 C 3.914062 -8.40625 3.628906 -8.367188 3.296875 -8.484375 C 2.972656 -8.617188 2.734375 -8.671875 2.578125 -8.640625 C 2.429688 -8.617188 2.332031 -8.546875 2.28125 -8.421875 C 2.164062 -8.191406 2.15625 -7.835938 2.25 -7.359375 C 2.351562 -6.878906 2.425781 -6.328125 2.46875 -5.703125 C 2.507812 -5.085938 2.375 -4.460938 2.0625 -3.828125 Z M -1.890625 -7.390625 C -1.304688 -7.109375 -0.816406 -7.050781 -0.421875 -7.21875 C -0.0351562 -7.394531 0.25 -7.679688 0.4375 -8.078125 C 0.675781 -8.578125 0.644531 -9.0625 0.34375 -9.53125 C 0.0390625 -10 -0.398438 -10.375 -0.984375 -10.65625 L -2.4375 -11.34375 C -2.96875 -11.601562 -3.226562 -11.421875 -3.21875 -10.796875 C -3.207031 -10.410156 -3.191406 -9.992188 -3.171875 -9.546875 C -3.148438 -9.097656 -3.054688 -8.6875 -2.890625 -8.3125 C -2.722656 -7.9375 -2.390625 -7.628906 -1.890625 -7.390625 Z M -1.890625 -7.390625 "/></g></g></g><g fill="#ebe5c1" fill-opacity="1"><g transform="translate(61.603976, 99.921714)"><g/></g></g><g fill="#ebe5c1" fill-opacity="1"><g transform="translate(72.740623, 84.894759)"><g><path d="M -0.25 -0.671875 C -0.414062 -0.835938 -0.503906 -1.003906 -0.515625 -1.171875 C -0.523438 -1.347656 -0.546875 -1.554688 -0.578125 -1.796875 C -0.609375 -2.035156 -0.726562 -2.332031 -0.9375 -2.6875 C -1.15625 -3.039062 -1.539062 -3.484375 -2.09375 -4.015625 L -5.015625 -6.796875 C -5.660156 -7.429688 -6.269531 -8.019531 -6.84375 -8.5625 C -7.414062 -9.113281 -7.78125 -9.46875 -7.9375 -9.625 C -8.5 -10.15625 -8.960938 -10.515625 -9.328125 -10.703125 C -9.691406 -10.898438 -9.992188 -11.007812 -10.234375 -11.03125 C -10.484375 -11.050781 -10.691406 -11.0625 -10.859375 -11.0625 C -11.023438 -11.0625 -11.195312 -11.148438 -11.375 -11.328125 C -11.625 -11.554688 -11.695312 -11.800781 -11.59375 -12.0625 C -11.5 -12.320312 -11.320312 -12.585938 -11.0625 -12.859375 C -10.789062 -13.148438 -10.46875 -13.4375 -10.09375 -13.71875 C -9.726562 -14 -9.429688 -14.265625 -9.203125 -14.515625 L -8.953125 -14.765625 C -8.421875 -15.335938 -7.914062 -15.921875 -7.4375 -16.515625 C -6.957031 -17.117188 -6.457031 -17.695312 -5.9375 -18.25 C -5.113281 -19.113281 -4.210938 -19.738281 -3.234375 -20.125 C -2.253906 -20.507812 -1.285156 -20.628906 -0.328125 -20.484375 C 0.617188 -20.347656 1.484375 -19.90625 2.265625 -19.15625 C 2.929688 -18.53125 3.425781 -17.78125 3.75 -16.90625 C 4.082031 -16.039062 4.148438 -15.125 3.953125 -14.15625 C 3.765625 -13.195312 3.21875 -12.242188 2.3125 -11.296875 C 1.695312 -10.640625 1.085938 -10.191406 0.484375 -9.953125 C 0.015625 -9.742188 -0.0546875 -9.488281 0.265625 -9.1875 L 1.609375 -7.90625 C 2.160156 -7.375 2.617188 -7.007812 2.984375 -6.8125 C 3.347656 -6.625 3.648438 -6.519531 3.890625 -6.5 C 4.140625 -6.488281 4.347656 -6.476562 4.515625 -6.46875 C 4.679688 -6.46875 4.847656 -6.382812 5.015625 -6.21875 C 5.253906 -5.988281 5.328125 -5.738281 5.234375 -5.46875 C 5.148438 -5.207031 4.976562 -4.941406 4.71875 -4.671875 C 4.425781 -4.359375 4.097656 -4.0625 3.734375 -3.78125 C 3.378906 -3.5 3.085938 -3.238281 2.859375 -3 C 2.628906 -2.757812 2.378906 -2.445312 2.109375 -2.0625 C 1.835938 -1.6875 1.566406 -1.359375 1.296875 -1.078125 C 1.023438 -0.796875 0.757812 -0.597656 0.5 -0.484375 C 0.238281 -0.378906 -0.0078125 -0.441406 -0.25 -0.671875 Z M -1.90625 -11.296875 C -1.550781 -10.960938 -1.179688 -10.992188 -0.796875 -11.390625 C -0.359375 -11.859375 -0.269531 -12.421875 -0.53125 -13.078125 C -0.789062 -13.742188 -1.253906 -14.394531 -1.921875 -15.03125 C -2.660156 -15.738281 -3.335938 -16.203125 -3.953125 -16.421875 C -4.566406 -16.640625 -5.117188 -16.488281 -5.609375 -15.96875 C -5.765625 -15.8125 -5.859375 -15.628906 -5.890625 -15.421875 C -5.921875 -15.222656 -5.835938 -15.03125 -5.640625 -14.84375 Z M -1.90625 -11.296875 "/></g></g></g><g fill="#ebe5c1" fill-opacity="1"><g transform="translate(94.07117, 64.394871)"><g><path d="M -0.109375 -0.703125 C -0.253906 -0.898438 -0.316406 -1.082031 -0.296875 -1.25 C -0.273438 -1.414062 -0.253906 -1.617188 -0.234375 -1.859375 C -0.222656 -2.109375 -0.289062 -2.425781 -0.4375 -2.8125 C -0.582031 -3.207031 -0.878906 -3.71875 -1.328125 -4.34375 C -1.929688 -5.175781 -2.359375 -5.773438 -2.609375 -6.140625 C -2.867188 -6.515625 -3.0625 -6.789062 -3.1875 -6.96875 C -3.3125 -7.144531 -3.453125 -7.335938 -3.609375 -7.546875 C -3.960938 -8.035156 -4.28125 -8.316406 -4.5625 -8.390625 C -4.851562 -8.472656 -5.113281 -8.507812 -5.34375 -8.5 C -5.582031 -8.5 -5.789062 -8.613281 -5.96875 -8.84375 C -6.15625 -9.113281 -6.195312 -9.367188 -6.09375 -9.609375 C -5.988281 -9.847656 -5.796875 -10.117188 -5.515625 -10.421875 C -5.234375 -10.734375 -4.914062 -11.144531 -4.5625 -11.65625 C -4.144531 -12.289062 -3.890625 -12.769531 -3.796875 -13.09375 C -3.703125 -13.414062 -3.640625 -13.671875 -3.609375 -13.859375 C -3.578125 -14.046875 -3.441406 -14.222656 -3.203125 -14.390625 C -2.878906 -14.628906 -2.554688 -14.640625 -2.234375 -14.421875 C -1.921875 -14.210938 -1.625 -13.914062 -1.34375 -13.53125 L -1.265625 -13.421875 C -0.941406 -12.972656 -0.773438 -12.753906 -0.765625 -12.765625 C -0.753906 -12.785156 -0.769531 -13.085938 -0.8125 -13.671875 C -0.894531 -14.410156 -0.757812 -15.113281 -0.40625 -15.78125 C -0.0625 -16.457031 0.363281 -16.976562 0.875 -17.34375 C 1.863281 -18.0625 2.65625 -18.3125 3.25 -18.09375 C 3.84375 -17.875 4.296875 -17.265625 4.609375 -16.265625 C 4.859375 -15.460938 4.988281 -14.878906 5 -14.515625 C 5.007812 -14.148438 4.929688 -13.90625 4.765625 -13.78125 C 4.585938 -13.65625 4.3125 -13.617188 3.9375 -13.671875 C 3.5625 -13.734375 3.164062 -13.769531 2.75 -13.78125 C 2.34375 -13.800781 1.953125 -13.675781 1.578125 -13.40625 C 1.359375 -13.25 1.148438 -12.992188 0.953125 -12.640625 C 0.765625 -12.285156 0.703125 -11.835938 0.765625 -11.296875 C 0.828125 -10.765625 1.101562 -10.15625 1.59375 -9.46875 L 3.03125 -7.5 C 3.476562 -6.875 3.863281 -6.425781 4.1875 -6.15625 C 4.507812 -5.894531 4.785156 -5.734375 5.015625 -5.671875 C 5.253906 -5.617188 5.453125 -5.570312 5.609375 -5.53125 C 5.773438 -5.5 5.929688 -5.382812 6.078125 -5.1875 C 6.273438 -4.914062 6.300781 -4.65625 6.15625 -4.40625 C 6.019531 -4.164062 5.800781 -3.9375 5.5 -3.71875 C 5.15625 -3.46875 4.78125 -3.238281 4.375 -3.03125 C 3.96875 -2.820312 3.628906 -2.617188 3.359375 -2.421875 C 3.085938 -2.234375 2.785156 -1.972656 2.453125 -1.640625 C 2.117188 -1.316406 1.796875 -1.039062 1.484375 -0.8125 C 1.171875 -0.582031 0.875 -0.4375 0.59375 -0.375 C 0.320312 -0.320312 0.0859375 -0.429688 -0.109375 -0.703125 Z M -0.109375 -0.703125 "/></g></g></g><g fill="#ebe5c1" fill-opacity="1"><g transform="translate(117.002063, 49.215449)"><g><path d="M 7.234375 -3.203125 C 5.222656 -2.242188 3.367188 -2.035156 1.671875 -2.578125 C -0.015625 -3.117188 -1.320312 -4.363281 -2.25 -6.3125 C -3.1875 -8.269531 -3.328125 -10.070312 -2.671875 -11.71875 C -2.015625 -13.363281 -0.679688 -14.664062 1.328125 -15.625 C 3.328125 -16.582031 5.171875 -16.796875 6.859375 -16.265625 C 8.554688 -15.734375 9.875 -14.488281 10.8125 -12.53125 C 11.738281 -10.582031 11.875 -8.78125 11.21875 -7.125 C 10.5625 -5.46875 9.234375 -4.160156 7.234375 -3.203125 Z M 2.71875 -8.6875 C 3.113281 -7.851562 3.519531 -7.109375 3.9375 -6.453125 C 4.351562 -5.804688 4.769531 -5.335938 5.1875 -5.046875 C 5.601562 -4.765625 6.015625 -4.71875 6.421875 -4.90625 C 6.847656 -5.101562 7.082031 -5.453125 7.125 -5.953125 C 7.164062 -6.460938 7.0625 -7.082031 6.8125 -7.8125 C 6.5625 -8.550781 6.238281 -9.335938 5.84375 -10.171875 C 5.4375 -11.015625 5.03125 -11.753906 4.625 -12.390625 C 4.226562 -13.035156 3.816406 -13.503906 3.390625 -13.796875 C 2.972656 -14.085938 2.550781 -14.132812 2.125 -13.9375 C 1.71875 -13.75 1.492188 -13.398438 1.453125 -12.890625 C 1.421875 -12.378906 1.519531 -11.757812 1.75 -11.03125 C 1.988281 -10.3125 2.3125 -9.53125 2.71875 -8.6875 Z M 2.71875 -8.6875 "/></g></g></g><g fill="#ebe5c1" fill-opacity="1"><g transform="translate(143.647194, 37.556753)"><g><path d="M 4.1875 -0.953125 C 3.863281 -0.878906 3.488281 -0.757812 3.0625 -0.59375 C 2.632812 -0.425781 2.222656 -0.296875 1.828125 -0.203125 C 1.460938 -0.117188 1.140625 -0.101562 0.859375 -0.15625 C 0.585938 -0.21875 0.414062 -0.410156 0.34375 -0.734375 C 0.289062 -0.960938 0.300781 -1.148438 0.375 -1.296875 C 0.457031 -1.453125 0.550781 -1.632812 0.65625 -1.84375 C 0.769531 -2.0625 0.835938 -2.378906 0.859375 -2.796875 C 0.878906 -3.210938 0.804688 -3.796875 0.640625 -4.546875 C 0.410156 -5.554688 0.25 -6.28125 0.15625 -6.71875 C 0.0703125 -7.164062 0.0078125 -7.492188 -0.03125 -7.703125 C -0.0820312 -7.910156 -0.140625 -8.144531 -0.203125 -8.40625 C -0.335938 -8.988281 -0.523438 -9.375 -0.765625 -9.5625 C -1.003906 -9.75 -1.226562 -9.882812 -1.4375 -9.96875 C -1.644531 -10.0625 -1.785156 -10.25 -1.859375 -10.53125 C -1.929688 -10.851562 -1.867188 -11.097656 -1.671875 -11.265625 C -1.484375 -11.441406 -1.195312 -11.617188 -0.8125 -11.796875 C -0.4375 -11.972656 0.0078125 -12.222656 0.53125 -12.546875 C 1.164062 -12.960938 1.585938 -13.300781 1.796875 -13.5625 C 2.015625 -13.820312 2.171875 -14.03125 2.265625 -14.1875 C 2.367188 -14.351562 2.554688 -14.46875 2.828125 -14.53125 C 3.222656 -14.625 3.523438 -14.507812 3.734375 -14.1875 C 3.953125 -13.863281 4.113281 -13.46875 4.21875 -13 L 4.28125 -12.734375 C 4.34375 -12.429688 4.429688 -12.296875 4.546875 -12.328125 C 4.648438 -12.347656 4.796875 -12.507812 4.984375 -12.8125 C 5.171875 -13.125 5.410156 -13.484375 5.703125 -13.890625 C 6.003906 -14.304688 6.394531 -14.695312 6.875 -15.0625 C 7.351562 -15.4375 7.925781 -15.695312 8.59375 -15.84375 C 9.257812 -16 9.835938 -16.003906 10.328125 -15.859375 C 10.828125 -15.710938 11.238281 -15.503906 11.5625 -15.234375 C 11.894531 -14.960938 12.160156 -14.71875 12.359375 -14.5 C 12.566406 -14.28125 12.710938 -14.179688 12.796875 -14.203125 C 12.953125 -14.242188 13.117188 -14.410156 13.296875 -14.703125 C 13.484375 -14.992188 13.722656 -15.347656 14.015625 -15.765625 C 14.316406 -16.191406 14.703125 -16.585938 15.171875 -16.953125 C 15.640625 -17.316406 16.242188 -17.585938 16.984375 -17.765625 C 18.003906 -17.992188 18.828125 -17.953125 19.453125 -17.640625 C 20.078125 -17.328125 20.550781 -16.863281 20.875 -16.25 C 21.207031 -15.644531 21.453125 -15.003906 21.609375 -14.328125 L 22.6875 -9.578125 C 22.851562 -8.828125 23.035156 -8.265625 23.234375 -7.890625 C 23.429688 -7.523438 23.617188 -7.265625 23.796875 -7.109375 C 23.984375 -6.960938 24.148438 -6.84375 24.296875 -6.75 C 24.453125 -6.65625 24.554688 -6.492188 24.609375 -6.265625 C 24.679688 -5.941406 24.632812 -5.703125 24.46875 -5.546875 C 24.3125 -5.390625 24.085938 -5.273438 23.796875 -5.203125 C 23.492188 -5.128906 23.132812 -5.082031 22.71875 -5.0625 C 22.300781 -5.039062 21.90625 -4.988281 21.53125 -4.90625 C 21.1875 -4.820312 20.890625 -4.734375 20.640625 -4.640625 C 20.398438 -4.554688 20.140625 -4.457031 19.859375 -4.34375 C 19.453125 -4.207031 19.082031 -4.226562 18.75 -4.40625 C 18.425781 -4.582031 18.210938 -4.890625 18.109375 -5.328125 L 16.90625 -10.65625 C 16.664062 -11.695312 16.378906 -12.460938 16.046875 -12.953125 C 15.722656 -13.453125 15.273438 -13.632812 14.703125 -13.5 C 14.242188 -13.394531 13.898438 -13.101562 13.671875 -12.625 C 13.441406 -12.15625 13.460938 -11.316406 13.734375 -10.109375 L 14.296875 -7.65625 C 14.460938 -6.90625 14.644531 -6.347656 14.84375 -5.984375 C 15.039062 -5.617188 15.238281 -5.363281 15.4375 -5.21875 C 15.632812 -5.070312 15.800781 -4.945312 15.9375 -4.84375 C 16.070312 -4.738281 16.164062 -4.570312 16.21875 -4.34375 C 16.289062 -4.019531 16.25 -3.78125 16.09375 -3.625 C 15.9375 -3.46875 15.707031 -3.359375 15.40625 -3.296875 C 15.101562 -3.222656 14.742188 -3.175781 14.328125 -3.15625 C 13.910156 -3.132812 13.515625 -3.082031 13.140625 -3 C 12.785156 -2.914062 12.488281 -2.828125 12.25 -2.734375 C 12.007812 -2.648438 11.753906 -2.550781 11.484375 -2.4375 C 11.054688 -2.289062 10.679688 -2.304688 10.359375 -2.484375 C 10.035156 -2.660156 9.820312 -2.96875 9.71875 -3.40625 L 8.515625 -8.734375 C 8.273438 -9.773438 7.984375 -10.539062 7.640625 -11.03125 C 7.304688 -11.53125 6.851562 -11.71875 6.28125 -11.59375 C 5.78125 -11.476562 5.4375 -11.128906 5.25 -10.546875 C 5.0625 -9.972656 5.148438 -8.894531 5.515625 -7.3125 L 5.875 -5.734375 C 6.039062 -4.984375 6.222656 -4.425781 6.421875 -4.0625 C 6.617188 -3.695312 6.816406 -3.441406 7.015625 -3.296875 C 7.210938 -3.148438 7.378906 -3.023438 7.515625 -2.921875 C 7.648438 -2.828125 7.742188 -2.664062 7.796875 -2.4375 C 7.867188 -2.113281 7.789062 -1.863281 7.5625 -1.6875 C 7.34375 -1.519531 7.050781 -1.394531 6.6875 -1.3125 C 6.269531 -1.21875 5.828125 -1.148438 5.359375 -1.109375 C 4.898438 -1.078125 4.507812 -1.023438 4.1875 -0.953125 Z M 4.1875 -0.953125 "/></g></g></g><g fill="#ebe5c1" fill-opacity="1"><g transform="translate(182.314009, 30.982932)"><g><path d="M 4.234375 -0.109375 C 3.898438 -0.0976562 3.503906 -0.0546875 3.046875 0.015625 C 2.597656 0.0976562 2.171875 0.144531 1.765625 0.15625 C 1.390625 0.164062 1.070312 0.113281 0.8125 0 C 0.5625 -0.101562 0.429688 -0.320312 0.421875 -0.65625 C 0.410156 -0.894531 0.457031 -1.078125 0.5625 -1.203125 C 0.675781 -1.328125 0.804688 -1.484375 0.953125 -1.671875 C 1.109375 -1.867188 1.234375 -2.171875 1.328125 -2.578125 C 1.429688 -2.984375 1.472656 -3.570312 1.453125 -4.34375 C 1.421875 -5.375 1.40625 -6.113281 1.40625 -6.5625 C 1.40625 -7.019531 1.398438 -7.351562 1.390625 -7.5625 C 1.378906 -7.78125 1.375 -8.019531 1.375 -8.28125 C 1.351562 -8.882812 1.242188 -9.300781 1.046875 -9.53125 C 0.859375 -9.757812 0.664062 -9.9375 0.46875 -10.0625 C 0.28125 -10.1875 0.179688 -10.394531 0.171875 -10.6875 C 0.171875 -11.019531 0.28125 -11.25 0.5 -11.375 C 0.71875 -11.507812 1.03125 -11.625 1.4375 -11.71875 C 1.851562 -11.820312 2.34375 -11.984375 2.90625 -12.203125 C 3.601562 -12.484375 4.082031 -12.734375 4.34375 -12.953125 C 4.613281 -13.171875 4.8125 -13.347656 4.9375 -13.484375 C 5.0625 -13.628906 5.269531 -13.703125 5.5625 -13.703125 C 5.957031 -13.710938 6.226562 -13.539062 6.375 -13.1875 C 6.519531 -12.832031 6.601562 -12.414062 6.625 -11.9375 L 6.828125 -4.484375 C 6.847656 -3.710938 6.914062 -3.128906 7.03125 -2.734375 C 7.15625 -2.335938 7.296875 -2.046875 7.453125 -1.859375 C 7.617188 -1.671875 7.757812 -1.515625 7.875 -1.390625 C 7.988281 -1.273438 8.050781 -1.097656 8.0625 -0.859375 C 8.070312 -0.523438 7.945312 -0.296875 7.6875 -0.171875 C 7.4375 -0.0546875 7.117188 0.00390625 6.734375 0.015625 C 6.316406 0.0234375 5.878906 0.00390625 5.421875 -0.046875 C 4.960938 -0.0976562 4.566406 -0.117188 4.234375 -0.109375 Z M 0.046875 -14.5 C -0.203125 -15.15625 -0.109375 -15.878906 0.328125 -16.671875 C 0.765625 -17.460938 1.445312 -18.113281 2.375 -18.625 C 3.132812 -19.039062 3.835938 -19.257812 4.484375 -19.28125 C 5.460938 -19.300781 6.109375 -18.921875 6.421875 -18.140625 C 6.679688 -17.453125 6.59375 -16.722656 6.15625 -15.953125 C 5.726562 -15.179688 5.050781 -14.53125 4.125 -14 C 3.332031 -13.582031 2.613281 -13.363281 1.96875 -13.34375 C 1.019531 -13.320312 0.378906 -13.707031 0.046875 -14.5 Z M 0.046875 -14.5 "/></g></g></g><g fill="#ebe5c1" fill-opacity="1"><g transform="translate(204.345516, 31.251108)"><g><path d="M 1.09375 -3.078125 C 1.15625 -3.523438 1.328125 -3.863281 1.609375 -4.09375 C 1.898438 -4.320312 2.289062 -4.40625 2.78125 -4.34375 C 3.1875 -4.28125 3.503906 -4.078125 3.734375 -3.734375 C 3.960938 -3.390625 4.191406 -3 4.421875 -2.5625 C 4.648438 -2.132812 4.960938 -1.734375 5.359375 -1.359375 C 5.765625 -0.992188 6.34375 -0.757812 7.09375 -0.65625 C 7.675781 -0.582031 8.140625 -0.582031 8.484375 -0.65625 C 8.828125 -0.738281 9.023438 -1.003906 9.078125 -1.453125 C 9.128906 -1.796875 8.976562 -2.101562 8.625 -2.375 C 8.269531 -2.65625 7.804688 -2.925781 7.234375 -3.1875 C 6.660156 -3.445312 6.050781 -3.738281 5.40625 -4.0625 C 4.757812 -4.394531 4.160156 -4.773438 3.609375 -5.203125 C 3.066406 -5.628906 2.640625 -6.148438 2.328125 -6.765625 C 2.023438 -7.390625 1.929688 -8.128906 2.046875 -8.984375 C 2.171875 -9.953125 2.492188 -10.695312 3.015625 -11.21875 C 3.535156 -11.75 4.144531 -12.113281 4.84375 -12.3125 C 5.550781 -12.507812 6.234375 -12.609375 6.890625 -12.609375 C 7.554688 -12.609375 8.09375 -12.578125 8.5 -12.515625 C 9.625 -12.367188 10.65625 -12.097656 11.59375 -11.703125 C 12.53125 -11.316406 13.257812 -10.820312 13.78125 -10.21875 C 14.3125 -9.625 14.523438 -8.953125 14.421875 -8.203125 C 14.367188 -7.828125 14.1875 -7.523438 13.875 -7.296875 C 13.570312 -7.066406 13.234375 -6.976562 12.859375 -7.03125 C 12.285156 -7.101562 11.84375 -7.320312 11.53125 -7.6875 C 11.21875 -8.0625 10.941406 -8.46875 10.703125 -8.90625 C 10.472656 -9.351562 10.195312 -9.757812 9.875 -10.125 C 9.550781 -10.5 9.085938 -10.726562 8.484375 -10.8125 C 7.898438 -10.882812 7.492188 -10.796875 7.265625 -10.546875 C 7.035156 -10.304688 6.898438 -10.039062 6.859375 -9.75 C 6.796875 -9.320312 6.9375 -8.976562 7.28125 -8.71875 C 7.632812 -8.457031 8.097656 -8.210938 8.671875 -7.984375 C 9.242188 -7.753906 9.847656 -7.503906 10.484375 -7.234375 C 11.128906 -6.972656 11.726562 -6.65625 12.28125 -6.28125 C 12.84375 -5.90625 13.269531 -5.421875 13.5625 -4.828125 C 13.863281 -4.234375 13.957031 -3.492188 13.84375 -2.609375 C 13.6875 -1.484375 13.238281 -0.628906 12.5 -0.046875 C 11.769531 0.523438 10.875 0.894531 9.8125 1.0625 C 8.757812 1.226562 7.671875 1.234375 6.546875 1.078125 C 6.085938 1.015625 5.535156 0.878906 4.890625 0.671875 C 4.242188 0.472656 3.613281 0.207031 3 -0.125 C 2.382812 -0.457031 1.890625 -0.867188 1.515625 -1.359375 C 1.148438 -1.847656 1.007812 -2.421875 1.09375 -3.078125 Z M 1.09375 -3.078125 "/></g></g></g><g fill="#ebe5c1" fill-opacity="1"><g transform="translate(231.455954, 36.04939)"><g><path d="M 3.90625 1.484375 C 2.71875 1.097656 1.953125 0.460938 1.609375 -0.421875 C 1.265625 -1.304688 1.25 -2.234375 1.5625 -3.203125 C 2.03125 -4.617188 2.925781 -5.554688 4.25 -6.015625 C 5.582031 -6.484375 7.144531 -6.625 8.9375 -6.4375 C 10.664062 -6.25 11.648438 -6.515625 11.890625 -7.234375 C 11.984375 -7.515625 11.957031 -7.820312 11.8125 -8.15625 C 11.664062 -8.488281 11.300781 -8.75 10.71875 -8.9375 C 10.144531 -9.125 9.628906 -9.125 9.171875 -8.9375 C 8.722656 -8.75 8.296875 -8.503906 7.890625 -8.203125 C 7.484375 -7.898438 7.066406 -7.648438 6.640625 -7.453125 C 6.210938 -7.253906 5.726562 -7.242188 5.1875 -7.421875 C 4.820312 -7.546875 4.546875 -7.773438 4.359375 -8.109375 C 4.179688 -8.453125 4.148438 -8.804688 4.265625 -9.171875 C 4.503906 -9.878906 4.988281 -10.390625 5.71875 -10.703125 C 6.445312 -11.015625 7.3125 -11.144531 8.3125 -11.09375 C 9.320312 -11.050781 10.367188 -10.851562 11.453125 -10.5 C 12.609375 -10.125 13.597656 -9.59375 14.421875 -8.90625 C 15.253906 -8.226562 15.816406 -7.359375 16.109375 -6.296875 C 16.398438 -5.242188 16.300781 -3.96875 15.8125 -2.46875 L 14.890625 0.359375 C 14.648438 1.085938 14.519531 1.660156 14.5 2.078125 C 14.476562 2.492188 14.507812 2.8125 14.59375 3.03125 C 14.675781 3.257812 14.75 3.445312 14.8125 3.59375 C 14.882812 3.75 14.882812 3.941406 14.8125 4.171875 C 14.707031 4.484375 14.539062 4.664062 14.3125 4.71875 C 14.09375 4.769531 13.832031 4.742188 13.53125 4.640625 C 13.21875 4.535156 12.878906 4.390625 12.515625 4.203125 C 12.160156 4.015625 11.820312 3.867188 11.5 3.765625 C 11.164062 3.660156 10.867188 3.582031 10.609375 3.53125 C 10.347656 3.476562 10.070312 3.425781 9.78125 3.375 C 9.425781 3.3125 9.132812 3.171875 8.90625 2.953125 C 8.675781 2.742188 8.601562 2.457031 8.6875 2.09375 C 8.78125 1.757812 8.800781 1.519531 8.75 1.375 C 8.707031 1.238281 8.617188 1.148438 8.484375 1.109375 C 8.253906 1.023438 7.90625 1.0625 7.4375 1.21875 C 6.976562 1.382812 6.441406 1.523438 5.828125 1.640625 C 5.210938 1.753906 4.570312 1.703125 3.90625 1.484375 Z M 8.96875 -14.4375 C 9 -14.539062 9.054688 -14.625 9.140625 -14.6875 C 9.234375 -14.757812 9.332031 -14.78125 9.4375 -14.75 C 9.476562 -14.738281 9.519531 -14.691406 9.5625 -14.609375 C 9.601562 -14.523438 9.65625 -14.429688 9.71875 -14.328125 C 9.84375 -14.160156 10.070312 -13.9375 10.40625 -13.65625 C 10.738281 -13.382812 11.34375 -13.101562 12.21875 -12.8125 C 13.070312 -12.53125 13.710938 -12.398438 14.140625 -12.421875 C 14.578125 -12.453125 14.898438 -12.5 15.109375 -12.5625 C 15.234375 -12.601562 15.332031 -12.644531 15.40625 -12.6875 C 15.488281 -12.726562 15.554688 -12.738281 15.609375 -12.71875 C 15.722656 -12.6875 15.78125 -12.617188 15.78125 -12.515625 C 15.789062 -12.410156 15.78125 -12.304688 15.75 -12.203125 C 15.570312 -11.671875 15.128906 -11.257812 14.421875 -10.96875 C 13.722656 -10.675781 12.785156 -10.722656 11.609375 -11.109375 C 10.441406 -11.492188 9.664062 -12.007812 9.28125 -12.65625 C 8.894531 -13.3125 8.789062 -13.90625 8.96875 -14.4375 Z M 10.125 -4.65625 C 9.738281 -4.601562 9.320312 -4.535156 8.875 -4.453125 C 8.4375 -4.367188 8.039062 -4.21875 7.6875 -4 C 7.34375 -3.789062 7.085938 -3.421875 6.921875 -2.890625 C 6.710938 -2.273438 6.71875 -1.785156 6.9375 -1.421875 C 7.164062 -1.066406 7.492188 -0.816406 7.921875 -0.671875 C 8.441406 -0.503906 8.910156 -0.601562 9.328125 -0.96875 C 9.742188 -1.332031 10.054688 -1.816406 10.265625 -2.421875 L 10.765625 -3.953125 C 10.941406 -4.523438 10.726562 -4.757812 10.125 -4.65625 Z M 10.125 -4.65625 "/></g></g></g></g></g></g></g></svg>