<?xml version="1.0" encoding="UTF-8"?>
<svg xmlns="http://www.w3.org/2000/svg" xmlns:xlink="http://www.w3.org/1999/xlink" width="1200" viewBox="0 0 1200 1200" height="1200" preserveAspectRatio="xMidYMid meet" version="1.2" baseProfile="tiny-ps">
  <defs>
    <g/>
    <clipPath id="3b68205365">
      <path d="M 140 512 L 741 512 L 741 759 L 140 759 Z M 140 512 " clip-rule="nonzero"/>
    </clipPath>
    <clipPath id="dbf0006adc">
      <path d="M 139.382812 513.617188 L 663.082031 349.882812 L 779.191406 721.261719 L 255.492188 884.996094 Z M 139.382812 513.617188 " clip-rule="nonzero"/>
    </clipPath>
    <clipPath id="f537c5aa08">
      <path d="M 710.992188 546.609375 L 671.554688 594.203125 C 679.960938 580.019531 689.378906 566.40625 701.023438 554.734375 C 703.96875 551.808594 707.304688 548.8125 710.992188 546.609375 Z M 622.550781 557.847656 L 614.433594 616.738281 C 615.175781 601.761719 616.476562 586.796875 618.738281 572.027344 C 619.480469 567.1875 620.5625 562.109375 622.570312 557.855469 Z M 715.550781 551.160156 C 714.578125 557.609375 711.136719 564.8125 705.09375 572.980469 C 696.734375 584.277344 683.804688 596.484375 668.851562 607.503906 Z M 628.191406 564.03125 L 630.628906 592.273438 L 617.257812 643.070312 Z M 632.59375 549.746094 L 633.507812 550.597656 L 634.382812 553.179688 C 642.09375 577.417969 638.316406 617.085938 622.613281 647.707031 C 630.652344 623.003906 639.625 584.367188 632.59375 549.746094 Z M 566.808594 607.433594 C 564.011719 618.140625 560.011719 635.253906 557.003906 655.914062 C 555.085938 668.953125 551.808594 679.511719 548.453125 687.574219 C 549.625 680.378906 550.421875 673.152344 551.183594 666.03125 L 552.660156 653.082031 C 554.46875 638.941406 557.734375 621.507812 566.824219 607.429688 Z M 572.554688 610.863281 C 574.320312 627.828125 573.933594 657.9375 555.972656 686.160156 C 558.917969 678.273438 561.65625 668.503906 563.363281 656.867188 C 566.160156 637.558594 569.835938 621.445312 572.554688 610.863281 Z M 578.65625 608.003906 C 581.285156 615.980469 582.121094 625.4375 581.378906 637.808594 C 580.402344 653.476562 577.5625 665.382812 572.371094 675.269531 C 569.78125 680.222656 565.167969 686.457031 559.738281 692.0625 C 581.058594 660.433594 580.785156 626.023438 578.65625 608.003906 Z M 643.007812 660.5 C 664.59375 653.75 689.167969 651.710938 711.007812 654.867188 C 683.121094 655.65625 655.375 659.355469 638.332031 662.046875 Z M 638.457031 668.535156 C 658.09375 665.382812 693.105469 660.734375 725.65625 661.125 L 716.695312 664.5625 C 705.300781 668.125 693.039062 669.269531 681.753906 669.757812 C 665.550781 670.484375 651.398438 670.082031 638.441406 668.539062 Z M 607.761719 710.273438 C 615.726562 712.527344 623 715.277344 629.824219 719.054688 C 637.652344 723.371094 644.113281 728.8125 649.007812 734.914062 C 637.695312 724.410156 622.152344 716.246094 607.761719 710.273438 Z M 592.980469 711.539062 C 611.207031 717.980469 634.847656 728.554688 648.339844 743.289062 C 636.261719 735.375 616.734375 723.332031 592.980469 711.539062 Z M 590.5 717.492188 C 612.507812 728.445312 630.761719 739.515625 642.683594 747.261719 C 624.367188 739.460938 607.148438 728.714844 590.5 717.492188 Z M 142.4375 512.660156 C 140.765625 513.183594 139.8125 515.003906 140.335938 516.675781 C 151.949219 553.820312 170.066406 587.894531 194.203125 617.984375 C 260.945312 701.308594 363.875 744.113281 469.6875 732.421875 C 490.660156 728.953125 509.160156 724.6875 526.167969 719.371094 C 538.777344 715.429688 550.539062 710.867188 561.867188 705.65625 L 572.238281 712.765625 C 597.453125 730.175781 623.5625 748.164062 653.035156 758.148438 C 654.246094 758.554688 656.972656 759.472656 660.257812 758.445312 L 661.628906 757.550781 L 661.703125 757.511719 L 661.761719 757.441406 L 661.828125 757.386719 C 663.402344 756.011719 664.941406 753.292969 663.375 748.238281 C 659.0625 734.273438 648.222656 721.933594 632.882812 713.457031 C 619.378906 705.992188 603.988281 702.269531 589.351562 699.398438 L 577.898438 697.585938 C 592.207031 689.792969 605.09375 680.917969 616.5 671.09375 L 616.578125 671.132812 C 635.492188 675.707031 656.292969 677.300781 682.011719 676.191406 C 693.78125 675.648438 706.609375 674.492188 718.65625 670.726562 C 725.773438 668.503906 732.613281 665.378906 738.835938 660.929688 L 738.878906 660.914062 L 738.921875 660.886719 L 739.351562 660.550781 L 739.929688 659.617188 L 740.132812 659.203125 L 740.253906 658.363281 L 740.179688 658.070312 L 740.214844 657.808594 L 740.042969 657.261719 L 739.597656 656.484375 L 739.164062 655.898438 L 738.25 655.367188 L 738.214844 655.3125 C 710.695312 644.363281 672.671875 644.5625 640.914062 654.492188 L 629.714844 658.511719 C 639.652344 648.058594 648.015625 636.777344 654.558594 624.8125 C 666.007812 617.84375 693.136719 599.945312 710.277344 576.804688 C 720.878906 562.484375 724.414062 550.292969 721.089844 539.546875 C 720.597656 537.976562 719.039062 537.046875 716.414062 537.515625 L 714.386719 538.082031 C 707.070312 540.371094 701.058594 545.65625 696.507812 550.21875 C 676.457031 570.3125 663.007812 595.4375 650.050781 619.894531 L 649.992188 619.980469 C 643.8125 631.664062 636.285156 641.980469 628.089844 651.023438 C 644.644531 618.730469 648.648438 576.851562 640.492188 551.25 C 639.546875 548.222656 637.964844 544.609375 634.207031 543.265625 C 632.53125 542.65625 630.679688 542.664062 628.472656 543.355469 L 627.996094 543.539062 L 627.800781 543.546875 L 626.976562 543.957031 L 625.566406 544.730469 C 616.6875 550.246094 613.945312 561.136719 612.425781 571.0625 C 607.347656 604.175781 607.078125 638.070312 606.875 670.863281 C 595.019531 680.363281 582.984375 687.75 572.585938 693.253906 L 562.578125 698.253906 C 569.328125 691.652344 575.023438 684.074219 578.046875 678.253906 C 583.667969 667.546875 586.769531 654.824219 587.785156 638.210938 C 588.40625 628.082031 588.507812 613.121094 582.394531 600.039062 C 580.136719 595.21875 576.828125 592.746094 573.070312 593.070312 L 572.5 593.113281 L 571.527344 593.367188 C 569.351562 594.046875 567.765625 595.644531 566.464844 597.203125 C 552.796875 613.351562 548.515625 635.125 546.332031 652.273438 L 544.816406 665.320312 C 543.265625 679.746094 541.675781 694.636719 536.707031 708.546875 L 536.679688 709.039062 L 524.03125 713.292969 C 507.40625 718.492188 489.304688 722.648438 468.863281 726.050781 C 365.375 737.484375 264.589844 695.558594 199.210938 613.980469 C 175.589844 584.515625 157.835938 551.125 146.464844 514.757812 C 145.945312 513.085938 144.140625 512.128906 142.4375 512.660156 Z M 142.4375 512.660156 " clip-rule="nonzero"/>
    </clipPath>
    <clipPath id="a22922ea0e">
      <path d="M 0 0.0390625 L 600.320312 0.0390625 L 600.320312 247 L 0 247 Z M 0 0.0390625 " clip-rule="nonzero"/>
    </clipPath>
    <clipPath id="e0c4a612a0">
      <path d="M -0.617188 1.617188 L 523.082031 -162.117188 L 639.191406 209.261719 L 115.492188 372.996094 Z M -0.617188 1.617188 " clip-rule="nonzero"/>
    </clipPath>
    <clipPath id="ad11ec4025">
      <path d="M 570.992188 34.609375 L 531.554688 82.203125 C 539.960938 68.019531 549.378906 54.40625 561.023438 42.734375 C 563.96875 39.808594 567.304688 36.8125 570.992188 34.609375 Z M 482.550781 45.847656 L 474.433594 104.738281 C 475.175781 89.761719 476.476562 74.796875 478.738281 60.027344 C 479.480469 55.1875 480.5625 50.109375 482.570312 45.855469 Z M 575.550781 39.160156 C 574.578125 45.609375 571.136719 52.8125 565.09375 60.980469 C 556.734375 72.277344 543.804688 84.484375 528.851562 95.503906 Z M 488.191406 52.03125 L 490.628906 80.273438 L 477.257812 131.070312 Z M 492.59375 37.746094 L 493.507812 38.597656 L 494.382812 41.179688 C 502.09375 65.417969 498.316406 105.085938 482.613281 135.707031 C 490.652344 111.003906 499.625 72.367188 492.59375 37.746094 Z M 426.808594 95.433594 C 424.011719 106.140625 420.011719 123.253906 417.003906 143.914062 C 415.085938 156.953125 411.808594 167.511719 408.453125 175.574219 C 409.625 168.378906 410.421875 161.152344 411.183594 154.03125 L 412.660156 141.082031 C 414.46875 126.941406 417.734375 109.507812 426.824219 95.429688 Z M 432.554688 98.863281 C 434.320312 115.828125 433.933594 145.9375 415.972656 174.160156 C 418.917969 166.273438 421.65625 156.503906 423.363281 144.867188 C 426.160156 125.558594 429.835938 109.445312 432.554688 98.863281 Z M 438.65625 96.003906 C 441.285156 103.980469 442.121094 113.4375 441.378906 125.808594 C 440.402344 141.476562 437.5625 153.382812 432.371094 163.269531 C 429.78125 168.222656 425.167969 174.457031 419.738281 180.0625 C 441.058594 148.433594 440.785156 114.023438 438.65625 96.003906 Z M 503.007812 148.5 C 524.59375 141.75 549.167969 139.710938 571.007812 142.867188 C 543.121094 143.65625 515.375 147.355469 498.332031 150.046875 Z M 498.457031 156.535156 C 518.09375 153.382812 553.105469 148.734375 585.65625 149.125 L 576.695312 152.5625 C 565.300781 156.125 553.039062 157.269531 541.753906 157.757812 C 525.550781 158.484375 511.398438 158.082031 498.441406 156.539062 Z M 467.761719 198.273438 C 475.726562 200.527344 483 203.277344 489.824219 207.054688 C 497.652344 211.371094 504.113281 216.8125 509.007812 222.914062 C 497.695312 212.410156 482.152344 204.246094 467.761719 198.273438 Z M 452.980469 199.539062 C 471.207031 205.980469 494.847656 216.554688 508.339844 231.289062 C 496.261719 223.375 476.734375 211.332031 452.980469 199.539062 Z M 450.5 205.492188 C 472.507812 216.445312 490.761719 227.515625 502.683594 235.261719 C 484.367188 227.460938 467.148438 216.714844 450.5 205.492188 Z M 2.4375 0.660156 C 0.765625 1.183594 -0.1875 3.003906 0.335938 4.675781 C 11.949219 41.820312 30.066406 75.894531 54.203125 105.984375 C 120.945312 189.308594 223.875 232.113281 329.6875 220.421875 C 350.660156 216.953125 369.160156 212.6875 386.167969 207.371094 C 398.777344 203.429688 410.539062 198.867188 421.867188 193.65625 L 432.238281 200.765625 C 457.453125 218.175781 483.5625 236.164062 513.035156 246.148438 C 514.246094 246.554688 516.972656 247.472656 520.257812 246.445312 L 521.628906 245.550781 L 521.703125 245.511719 L 521.761719 245.441406 L 521.828125 245.386719 C 523.402344 244.011719 524.941406 241.292969 523.375 236.238281 C 519.0625 222.273438 508.222656 209.933594 492.882812 201.457031 C 479.378906 193.992188 463.988281 190.269531 449.351562 187.398438 L 437.898438 185.585938 C 452.207031 177.792969 465.09375 168.917969 476.5 159.09375 L 476.578125 159.132812 C 495.492188 163.707031 516.292969 165.300781 542.011719 164.191406 C 553.78125 163.648438 566.609375 162.492188 578.65625 158.726562 C 585.773438 156.503906 592.613281 153.378906 598.835938 148.929688 L 598.878906 148.914062 L 598.921875 148.886719 L 599.351562 148.550781 L 599.929688 147.617188 L 600.132812 147.203125 L 600.253906 146.363281 L 600.179688 146.070312 L 600.214844 145.808594 L 600.042969 145.261719 L 599.597656 144.484375 L 599.164062 143.898438 L 598.25 143.367188 L 598.214844 143.3125 C 570.695312 132.363281 532.671875 132.5625 500.914062 142.492188 L 489.714844 146.511719 C 499.652344 136.058594 508.015625 124.777344 514.558594 112.8125 C 526.007812 105.84375 553.136719 87.945312 570.277344 64.804688 C 580.878906 50.484375 584.414062 38.292969 581.089844 27.546875 C 580.597656 25.976562 579.039062 25.046875 576.414062 25.515625 L 574.386719 26.082031 C 567.070312 28.371094 561.058594 33.65625 556.507812 38.21875 C 536.457031 58.3125 523.007812 83.4375 510.050781 107.894531 L 509.992188 107.980469 C 503.8125 119.664062 496.285156 129.980469 488.089844 139.023438 C 504.644531 106.730469 508.648438 64.851562 500.492188 39.25 C 499.546875 36.222656 497.964844 32.609375 494.207031 31.265625 C 492.53125 30.65625 490.679688 30.664062 488.472656 31.355469 L 487.996094 31.539062 L 487.800781 31.546875 L 486.976562 31.957031 L 485.566406 32.730469 C 476.6875 38.246094 473.945312 49.136719 472.425781 59.0625 C 467.347656 92.175781 467.078125 126.070312 466.875 158.863281 C 455.019531 168.363281 442.984375 175.75 432.585938 181.253906 L 422.578125 186.253906 C 429.328125 179.652344 435.023438 172.074219 438.046875 166.253906 C 443.667969 155.546875 446.769531 142.824219 447.785156 126.210938 C 448.40625 116.082031 448.507812 101.121094 442.394531 88.039062 C 440.136719 83.21875 436.828125 80.746094 433.070312 81.070312 L 432.5 81.113281 L 431.527344 81.367188 C 429.351562 82.046875 427.765625 83.644531 426.464844 85.203125 C 412.796875 101.351562 408.515625 123.125 406.332031 140.273438 L 404.816406 153.320312 C 403.265625 167.746094 401.675781 182.636719 396.707031 196.546875 L 396.679688 197.039062 L 384.03125 201.292969 C 367.40625 206.492188 349.304688 210.648438 328.863281 214.050781 C 225.375 225.484375 124.589844 183.558594 59.210938 101.980469 C 35.589844 72.515625 17.835938 39.125 6.464844 2.757812 C 5.945312 1.085938 4.140625 0.128906 2.4375 0.660156 Z M 2.4375 0.660156 " clip-rule="nonzero"/>
    </clipPath>
    <clipPath id="bef3c29495">
      <rect x="0" width="601" y="0" height="247"/>
    </clipPath>
    <clipPath id="0a0b369f0e">
      <path d="M 558 167 L 724 167 L 724 396 L 558 396 Z M 558 167 " clip-rule="nonzero"/>
    </clipPath>
    <clipPath id="c617c2664c">
      <path d="M 558.769531 166.742188 L 759.824219 205.203125 L 723.078125 397.289062 L 522.023438 358.828125 Z M 558.769531 166.742188 " clip-rule="nonzero"/>
    </clipPath>
    <clipPath id="0ec35eaf09">
      <path d="M 562.582031 167.46875 C 561.261719 167.21875 559.851562 167.84375 559.21875 169.09375 C 558.4375 170.625 559.023438 172.5 560.5625 173.265625 C 645.339844 216.667969 703.984375 298.929688 717.457031 393.300781 C 717.636719 394.65625 718.65625 395.671875 720.265625 395.976562 L 720.964844 395.9375 C 722.257812 395.761719 723.261719 394.789062 723.554688 393.585938 L 723.613281 393.285156 C 723.648438 393.007812 723.660156 392.710938 723.609375 392.402344 C 709.867188 296.058594 649.980469 212.066406 563.132812 167.625 Z M 562.582031 167.46875 " clip-rule="nonzero"/>
    </clipPath>
    <clipPath id="75ebd0cf21">
      <path d="M 0.398438 0.160156 L 165.761719 0.160156 L 165.761719 229 L 0.398438 229 Z M 0.398438 0.160156 " clip-rule="nonzero"/>
    </clipPath>
    <clipPath id="110c642597">
      <path d="M 0.769531 -0.257812 L 201.824219 38.203125 L 165.078125 230.289062 L -35.976562 191.828125 Z M 0.769531 -0.257812 " clip-rule="nonzero"/>
    </clipPath>
    <clipPath id="851c3d8a44">
      <path d="M 4.582031 0.46875 C 3.261719 0.21875 1.851562 0.84375 1.21875 2.09375 C 0.4375 3.625 1.023438 5.5 2.5625 6.265625 C 87.339844 49.667969 145.984375 131.929688 159.457031 226.300781 C 159.636719 227.65625 160.65625 228.671875 162.265625 228.976562 L 162.964844 228.9375 C 164.257812 228.761719 165.261719 227.789062 165.554688 226.585938 L 165.613281 226.285156 C 165.648438 226.007812 165.660156 225.710938 165.609375 225.402344 C 151.867188 129.058594 91.980469 45.066406 5.132812 0.625 Z M 4.582031 0.46875 " clip-rule="nonzero"/>
    </clipPath>
    <clipPath id="d84d9eb77a">
      <rect x="0" width="166" y="0" height="229"/>
    </clipPath>
    <clipPath id="69f5c37225">
      <path d="M 275.445312 262 L 569.90625 262 L 569.90625 583 L 275.445312 583 Z M 275.445312 262 " clip-rule="nonzero"/>
    </clipPath>
    <clipPath id="552cd665d0">
      <path d="M 409.234375 262.328125 L 408.988281 262.34375 C 407.953125 262.34375 403.304688 262.644531 398.65625 263.023438 C 356.898438 265.84375 316.550781 286.441406 289.015625 318.992188 C 284.222656 324.632812 275.445312 336.792969 275.445312 337.683594 C 275.511719 338.269531 279.570312 341.390625 288.050781 347.257812 L 293.585938 351.109375 L 298.460938 344.277344 C 312.1875 324.855469 329.011719 310.316406 349.59375 300.089844 C 369.070312 290.371094 388.804688 285.671875 410.175781 285.671875 L 420.050781 285.996094 C 480.851562 290.007812 531.609375 334.480469 544.304688 394.773438 C 548 412.421875 548.066406 433.03125 544.304688 451.054688 C 535.957031 491.757812 508.945312 527.128906 472.140625 545.582031 C 465.203125 548.992188 464.027344 549.972656 455.105469 559.074219 C 449.871094 564.496094 441.980469 571.835938 437.617188 575.46875 C 433.191406 579.113281 429.714844 582.15625 429.898438 582.261719 L 430.183594 582.273438 C 432.652344 582.273438 448.171875 579.019531 455.460938 576.957031 C 505.042969 562.640625 545.910156 522.972656 562.003906 473.507812 C 567.683594 456.007812 569.957031 441.625 569.890625 422.777344 C 569.890625 396.460938 564.71875 374.226562 553.5 351.828125 C 543.535156 331.726562 529.742188 314 513.742188 300.585938 C 486.664062 277.808594 456.269531 265.425781 421.433594 262.917969 C 416.183594 262.578125 411.101562 262.304688 409.207031 262.304688 Z M 409.234375 262.328125 " clip-rule="nonzero"/>
    </clipPath>
    <clipPath id="c1b4edb446">
      <path d="M 0.445312 0.199219 L 294.90625 0.199219 L 294.90625 320.359375 L 0.445312 320.359375 Z M 0.445312 0.199219 " clip-rule="nonzero"/>
    </clipPath>
    <clipPath id="c0a584fd2a">
      <path d="M 134.234375 0.328125 L 133.988281 0.34375 C 132.953125 0.34375 128.304688 0.644531 123.65625 1.023438 C 81.898438 3.84375 41.550781 24.441406 14.015625 56.992188 C 9.222656 62.632812 0.445312 74.792969 0.445312 75.683594 C 0.511719 76.269531 4.570312 79.390625 13.050781 85.257812 L 18.585938 89.109375 L 23.460938 82.277344 C 37.1875 62.855469 54.011719 48.316406 74.59375 38.089844 C 94.070312 28.371094 113.804688 23.671875 135.175781 23.671875 L 145.050781 23.996094 C 205.851562 28.007812 256.609375 72.480469 269.304688 132.773438 C 273 150.421875 273.066406 171.03125 269.304688 189.054688 C 260.957031 229.757812 233.945312 265.128906 197.140625 283.582031 C 190.203125 286.992188 189.027344 287.972656 180.105469 297.074219 C 174.871094 302.496094 166.980469 309.835938 162.617188 313.46875 C 158.191406 317.113281 154.714844 320.15625 154.898438 320.261719 L 155.183594 320.273438 C 157.652344 320.273438 173.171875 317.019531 180.460938 314.957031 C 230.042969 300.640625 270.910156 260.972656 287.003906 211.507812 C 292.683594 194.007812 294.957031 179.625 294.890625 160.777344 C 294.890625 134.460938 289.71875 112.226562 278.5 89.828125 C 268.535156 69.726562 254.742188 52 238.742188 38.585938 C 211.664062 15.808594 181.269531 3.425781 146.433594 0.917969 C 141.183594 0.578125 136.101562 0.304688 134.207031 0.304688 Z M 134.234375 0.328125 " clip-rule="nonzero"/>
    </clipPath>
    <clipPath id="72b2b57d6a">
      <rect x="0" width="295" y="0" height="321"/>
    </clipPath>
    <clipPath id="7575522eb2">
      <path d="M 241.414062 335.863281 L 496.773438 335.863281 L 496.773438 608 L 241.414062 608 Z M 241.414062 335.863281 " clip-rule="nonzero"/>
    </clipPath>
    <clipPath id="bd3501238f">
      <path d="M 241.429688 335.863281 L 241.414062 335.890625 C 241.414062 336.910156 247.683594 348.859375 251.539062 355.011719 C 262.222656 372.4375 279.804688 391.804688 295.453125 403.523438 C 331.761719 430.679688 377.230469 446.691406 430.457031 451.222656 L 444.929688 452.414062 L 443.515625 460.5625 C 435.039062 512.195312 401.300781 557.964844 347.710938 590.761719 C 341.351562 594.679688 324.671875 603.363281 315.003906 607.675781 L 317.445312 607.296875 C 323.496094 606.34375 339.875 602.476562 348.078125 600.101562 C 374.789062 592.378906 398.859375 580.519531 419.757812 564.714844 C 429.125 557.609375 444.472656 542.617188 451.851562 533.421875 C 475.113281 504.421875 490.238281 469.261719 495.476562 432.230469 C 496.363281 426.015625 496.953125 420.738281 496.703125 420.554688 L 496.363281 420.527344 C 495.554688 420.527344 493.503906 420.855469 491.269531 421.324219 C 479.683594 423.847656 461.789062 425.363281 446.351562 425.363281 C 440.449219 425.363281 434.910156 425.140625 430.21875 424.667969 C 378.769531 419.613281 323.417969 396.925781 272.03125 359.832031 C 261.203125 351.980469 253.746094 346.195312 246.066406 339.441406 C 243.648438 337.417969 241.675781 335.863281 241.429688 335.863281 Z M 241.429688 335.863281 " clip-rule="nonzero"/>
    </clipPath>
    <clipPath id="e99040ec87">
      <path d="M 0.414062 0.863281 L 255.773438 0.863281 L 255.773438 272.800781 L 0.414062 272.800781 Z M 0.414062 0.863281 " clip-rule="nonzero"/>
    </clipPath>
    <clipPath id="855d5b470f">
      <path d="M 0.429688 0.863281 L 0.414062 0.890625 C 0.414062 1.910156 6.683594 13.859375 10.539062 20.011719 C 21.222656 37.4375 38.804688 56.804688 54.453125 68.523438 C 90.761719 95.679688 136.230469 111.691406 189.457031 116.222656 L 203.929688 117.414062 L 202.515625 125.5625 C 194.039062 177.195312 160.300781 222.964844 106.710938 255.761719 C 100.351562 259.679688 83.671875 268.363281 74.003906 272.675781 L 76.445312 272.296875 C 82.496094 271.34375 98.875 267.476562 107.078125 265.101562 C 133.789062 257.378906 157.859375 245.519531 178.757812 229.714844 C 188.125 222.609375 203.472656 207.617188 210.851562 198.421875 C 234.113281 169.421875 249.238281 134.261719 254.476562 97.230469 C 255.363281 91.015625 255.953125 85.738281 255.703125 85.554688 L 255.363281 85.527344 C 254.554688 85.527344 252.503906 85.855469 250.269531 86.324219 C 238.683594 88.847656 220.789062 90.363281 205.351562 90.363281 C 199.449219 90.363281 193.910156 90.140625 189.21875 89.667969 C 137.769531 84.613281 82.417969 61.925781 31.03125 24.832031 C 20.203125 16.980469 12.746094 11.195312 5.066406 4.441406 C 2.648438 2.417969 0.675781 0.863281 0.429688 0.863281 Z M 0.429688 0.863281 " clip-rule="nonzero"/>
    </clipPath>
    <clipPath id="b6249a0c25">
      <rect x="0" width="256" y="0" height="273"/>
    </clipPath>
    <clipPath id="c9cc369f99">
      <path d="M 392.65625 361.21875 L 526 361.21875 L 526 406 L 392.65625 406 Z M 392.65625 361.21875 " clip-rule="nonzero"/>
    </clipPath>
    <clipPath id="db428ff13e">
      <path d="M 474.632812 361.21875 C 468.375 361.21875 462.652344 361.453125 459.53125 361.949219 C 433.90625 366.234375 414.039062 376.082031 398.457031 392.132812 C 391.078125 399.671875 391.078125 399.816406 396.613281 400.792969 C 408.214844 402.78125 421.652344 404.554688 431.476562 405.378906 C 436.335938 405.769531 442.867188 405.953125 449.671875 405.953125 C 462.273438 405.953125 475.808594 405.328125 481.320312 404.269531 C 486.554688 403.316406 498.089844 400.285156 498.886719 399.683594 C 499.042969 399.617188 499.554688 397.386719 500.140625 394.71875 C 502.738281 382.234375 510.421875 374.605469 521.5625 373.574219 L 525.988281 373.117188 L 520.085938 370.085938 C 513.359375 366.597656 506.933594 364.390625 499.042969 362.679688 C 495.164062 361.921875 487.222656 361.414062 479.28125 361.257812 Z M 474.632812 361.21875 " clip-rule="nonzero"/>
    </clipPath>
    <clipPath id="9088ec6cad">
      <path d="M 0.65625 0.21875 L 134 0.21875 L 134 44.960938 L 0.65625 44.960938 Z M 0.65625 0.21875 " clip-rule="nonzero"/>
    </clipPath>
    <clipPath id="96540389ba">
      <path d="M 82.632812 0.21875 C 76.375 0.21875 70.652344 0.453125 67.53125 0.949219 C 41.90625 5.234375 22.039062 15.082031 6.457031 31.132812 C -0.921875 38.671875 -0.921875 38.816406 4.613281 39.792969 C 16.214844 41.78125 29.652344 43.554688 39.476562 44.378906 C 44.335938 44.769531 50.867188 44.953125 57.671875 44.953125 C 70.273438 44.953125 83.808594 44.328125 89.320312 43.269531 C 94.554688 42.316406 106.089844 39.285156 106.886719 38.683594 C 107.042969 38.617188 107.554688 36.386719 108.140625 33.71875 C 110.738281 21.234375 118.421875 13.605469 129.5625 12.574219 L 133.988281 12.117188 L 128.085938 9.085938 C 121.359375 5.597656 114.933594 3.390625 107.042969 1.679688 C 103.164062 0.921875 95.222656 0.414062 87.28125 0.257812 Z M 82.632812 0.21875 " clip-rule="nonzero"/>
    </clipPath>
    <clipPath id="768f53ba87">
      <rect x="0" width="134" y="0" height="45"/>
    </clipPath>
    <clipPath id="5d4af9277a">
      <path d="M 229.746094 378.070312 L 417 378.070312 L 417 582.875 L 229.746094 582.875 Z M 229.746094 378.070312 " clip-rule="nonzero"/>
    </clipPath>
    <clipPath id="ec7c2d7b37">
      <path d="M 229.746094 378.070312 L 229.746094 378.085938 C 229.746094 379.703125 235.0625 392.988281 238.222656 399.363281 C 253.871094 430.695312 281.15625 456.296875 319.507812 475.667969 C 332.710938 482.339844 353.726562 490.203125 367.507812 493.625 L 370.761719 494.449219 L 370.238281 497.570312 C 369.441406 502.105469 366.476562 512.253906 363.460938 520.652344 C 356.511719 539.65625 341.683594 563.753906 327.605469 578.75 C 325.554688 580.90625 324.144531 582.679688 324.429688 582.679688 C 325.90625 582.679688 340.796875 574.375 347.367188 569.984375 C 379.238281 548.472656 404.617188 513.597656 415.601562 475.980469 L 417 471.382812 L 412.046875 471.382812 C 405.476562 471.382812 388.601562 469.515625 377.617188 467.660156 C 339.113281 461.039062 300.839844 443.824219 270.304688 419.34375 C 259.839844 410.945312 243.382812 394.765625 235.953125 385.347656 C 232.660156 381.257812 229.929688 378.070312 229.746094 378.070312 Z M 229.746094 378.070312 " clip-rule="nonzero"/>
    </clipPath>
    <clipPath id="7e4e4cc00c">
      <path d="M 0.746094 0.0703125 L 188 0.0703125 L 188 204.839844 L 0.746094 204.839844 Z M 0.746094 0.0703125 " clip-rule="nonzero"/>
    </clipPath>
    <clipPath id="f8f20ff130">
      <path d="M 0.746094 0.0703125 L 0.746094 0.0859375 C 0.746094 1.703125 6.0625 14.988281 9.222656 21.363281 C 24.871094 52.695312 52.15625 78.296875 90.507812 97.667969 C 103.710938 104.339844 124.726562 112.203125 138.507812 115.625 L 141.761719 116.449219 L 141.238281 119.570312 C 140.441406 124.105469 137.476562 134.253906 134.460938 142.652344 C 127.511719 161.65625 112.683594 185.753906 98.605469 200.75 C 96.554688 202.90625 95.144531 204.679688 95.429688 204.679688 C 96.90625 204.679688 111.796875 196.375 118.367188 191.984375 C 150.238281 170.472656 175.617188 135.597656 186.601562 97.980469 L 188 93.382812 L 183.046875 93.382812 C 176.476562 93.382812 159.601562 91.515625 148.617188 89.660156 C 110.113281 83.039062 71.839844 65.824219 41.304688 41.34375 C 30.839844 32.945312 14.382812 16.765625 6.953125 7.347656 C 3.660156 3.257812 0.929688 0.0703125 0.746094 0.0703125 Z M 0.746094 0.0703125 " clip-rule="nonzero"/>
    </clipPath>
    <clipPath id="22113886c5">
      <rect x="0" width="188" y="0" height="205"/>
    </clipPath>
    <clipPath id="cee385801a">
      <path d="M 254.214844 454.324219 L 333.421875 454.324219 L 333.421875 555.496094 L 254.214844 555.496094 Z M 254.214844 454.324219 " clip-rule="nonzero"/>
    </clipPath>
    <clipPath id="a7793a3691">
      <path d="M 254.269531 454.324219 L 254.214844 454.480469 C 254.214844 459.679688 262.328125 483.945312 267.644531 494.710938 C 278.472656 516.535156 299.132812 540.804688 317.863281 553.644531 C 319.394531 554.6875 320.191406 555.460938 320.972656 555.460938 C 322.320312 555.460938 323.613281 553.1875 328.40625 546.066406 C 331.070312 542.148438 333.355469 538.425781 333.421875 537.824219 C 333.421875 537.316406 330.546875 534.496094 326.851562 531.675781 C 318.296875 524.988281 305.324219 511.335938 299.054688 502.507812 C 296.390625 498.640625 292.121094 491.589844 289.691406 486.832031 C 285.5625 478.890625 284.832031 478.003906 280.980469 475.40625 C 274.578125 471.1875 264.835938 463.402344 259.230469 458.058594 C 256.710938 455.695312 254.894531 454.324219 254.269531 454.324219 Z M 254.269531 454.324219 " clip-rule="nonzero"/>
    </clipPath>
    <clipPath id="c03dc35144">
      <path d="M 0.214844 0.324219 L 79.421875 0.324219 L 79.421875 101.480469 L 0.214844 101.480469 Z M 0.214844 0.324219 " clip-rule="nonzero"/>
    </clipPath>
    <clipPath id="c6cd0939b9">
      <path d="M 0.269531 0.324219 L 0.214844 0.480469 C 0.214844 5.679688 8.328125 29.945312 13.644531 40.710938 C 24.472656 62.535156 45.132812 86.804688 63.863281 99.644531 C 65.394531 100.6875 66.191406 101.460938 66.972656 101.460938 C 68.320312 101.460938 69.613281 99.1875 74.40625 92.066406 C 77.070312 88.148438 79.355469 84.425781 79.421875 83.824219 C 79.421875 83.316406 76.546875 80.496094 72.851562 77.675781 C 64.296875 70.988281 51.324219 57.335938 45.054688 48.507812 C 42.390625 44.640625 38.121094 37.589844 35.691406 32.832031 C 31.5625 24.890625 30.832031 24.003906 26.980469 21.40625 C 20.578125 17.1875 10.835938 9.402344 5.230469 4.058594 C 2.710938 1.695312 0.894531 0.324219 0.269531 0.324219 Z M 0.269531 0.324219 " clip-rule="nonzero"/>
    </clipPath>
    <clipPath id="19e1a8c2ac">
      <rect x="0" width="80" y="0" height="102"/>
    </clipPath>
    <clipPath id="9351f82faa">
      <path d="M 0.878906 0.601562 L 560 0.601562 L 560 505 L 0.878906 505 Z M 0.878906 0.601562 " clip-rule="nonzero"/>
    </clipPath>
    <clipPath id="e0d310e3f4">
      <rect x="0" width="560" y="0" height="505"/>
    </clipPath>
    <clipPath id="d08afa690b">
      <rect x="0" width="780" y="0" height="885"/>
    </clipPath>
  </defs>
  <rect x="-90" width="1080" fill="#ffffff" y="-89.999999" height="1079.999988" fill-opacity="1"/>
  <rect x="-90" width="1080" fill="#7f7537" y="-89.999999" height="1079.999988" fill-opacity="1"/>
  <g transform="matrix(1, 0, 0, 1, 32, 15)">
    <g clip-path="url(#d08afa690b)">
      <g clip-path="url(#3b68205365)">
        <g clip-path="url(#dbf0006adc)">
          <g clip-path="url(#f537c5aa08)">
            <g transform="matrix(1, 0, 0, 1, 140, 512)">
              <g clip-path="url(#bef3c29495)">
                <g clip-path="url(#a22922ea0e)">
                  <g clip-path="url(#e0c4a612a0)">
                    <g clip-path="url(#ad11ec4025)">
                      <path fill="#ebe5c1" d="M -0.617188 1.617188 L 521.632812 -161.664062 L 637.742188 209.714844 L 115.492188 372.996094 Z M -0.617188 1.617188 " fill-opacity="1" fill-rule="nonzero"/>
                    </g>
                  </g>
                </g>
              </g>
            </g>
          </g>
        </g>
      </g>
      <g clip-path="url(#0a0b369f0e)">
        <g clip-path="url(#c617c2664c)">
          <g clip-path="url(#0ec35eaf09)">
            <g transform="matrix(1, 0, 0, 1, 558, 167)">
              <g clip-path="url(#d84d9eb77a)">
                <g clip-path="url(#75ebd0cf21)">
                  <g clip-path="url(#110c642597)">
                    <g clip-path="url(#851c3d8a44)">
                      <path fill="#ebe5c1" d="M 1.515625 -0.117188 L 201.824219 38.203125 L 165.222656 229.542969 L -35.085938 191.222656 Z M 1.515625 -0.117188 " fill-opacity="1" fill-rule="nonzero"/>
                    </g>
                  </g>
                </g>
              </g>
            </g>
          </g>
        </g>
      </g>
      <g clip-path="url(#69f5c37225)">
        <g clip-path="url(#552cd665d0)">
          <g transform="matrix(1, 0, 0, 1, 275, 262)">
            <g clip-path="url(#72b2b57d6a)">
              <g clip-path="url(#c1b4edb446)">
                <g clip-path="url(#c0a584fd2a)">
                  <path fill="#ebe5c1" d="M 0.445312 0.328125 L 294.90625 0.328125 L 294.90625 320.097656 L 0.445312 320.097656 Z M 0.445312 0.328125 " fill-opacity="1" fill-rule="nonzero"/>
                </g>
              </g>
            </g>
          </g>
        </g>
      </g>
      <g clip-path="url(#7575522eb2)">
        <g clip-path="url(#bd3501238f)">
          <g transform="matrix(1, 0, 0, 1, 241, 335)">
            <g clip-path="url(#b6249a0c25)">
              <g clip-path="url(#e99040ec87)">
                <g clip-path="url(#855d5b470f)">
                  <path fill="#ebe5c1" d="M 0.414062 0.863281 L 255.773438 0.863281 L 255.773438 272.183594 L 0.414062 272.183594 Z M 0.414062 0.863281 " fill-opacity="1" fill-rule="nonzero"/>
                </g>
              </g>
            </g>
          </g>
        </g>
      </g>
      <g clip-path="url(#c9cc369f99)">
        <g clip-path="url(#db428ff13e)">
          <g transform="matrix(1, 0, 0, 1, 392, 361)">
            <g clip-path="url(#768f53ba87)">
              <g clip-path="url(#9088ec6cad)">
                <g clip-path="url(#96540389ba)">
                  <path fill="#ebe5c1" d="M 0.65625 0.21875 L 133.960938 0.21875 L 133.960938 44.941406 L 0.65625 44.941406 Z M 0.65625 0.21875 " fill-opacity="1" fill-rule="nonzero"/>
                </g>
              </g>
            </g>
          </g>
        </g>
      </g>
      <g clip-path="url(#5d4af9277a)">
        <g clip-path="url(#ec7c2d7b37)">
          <g transform="matrix(1, 0, 0, 1, 229, 378)">
            <g clip-path="url(#22113886c5)">
              <g clip-path="url(#7e4e4cc00c)">
                <g clip-path="url(#f8f20ff130)">
                  <path fill="#ebe5c1" d="M 0.746094 0.0703125 L 188 0.0703125 L 188 204.875 L 0.746094 204.875 Z M 0.746094 0.0703125 " fill-opacity="1" fill-rule="nonzero"/>
                </g>
              </g>
            </g>
          </g>
        </g>
      </g>
      <g clip-path="url(#cee385801a)">
        <g clip-path="url(#a7793a3691)">
          <g transform="matrix(1, 0, 0, 1, 254, 454)">
            <g clip-path="url(#19e1a8c2ac)">
              <g clip-path="url(#c03dc35144)">
                <g clip-path="url(#c6cd0939b9)">
                  <path fill="#ebe5c1" d="M 0.214844 0.324219 L 79.421875 0.324219 L 79.421875 101.496094 L 0.214844 101.496094 Z M 0.214844 0.324219 " fill-opacity="1" fill-rule="nonzero"/>
                </g>
              </g>
            </g>
          </g>
        </g>
      </g>
      <g clip-path="url(#9351f82faa)">
        <g transform="matrix(1, 0, 0, 1, -0.000000000000007105, 0.000000000000104805)">
          <g clip-path="url(#e0d310e3f4)">
            <g fill="#ebe5c1" fill-opacity="1">
              <g transform="translate(141.486262, 478.13212)">
                <g>
                  <path d="M -19.78125 0.15625 C -19.6875 1.007812 -20.140625 1.554688 -21.140625 1.796875 C -22.148438 2.035156 -23.457031 2.242188 -25.0625 2.421875 L -28.3125 2.765625 C -29.050781 2.847656 -29.726562 2.707031 -30.34375 2.34375 C -30.96875 1.976562 -31.320312 1.425781 -31.40625 0.6875 C -31.582031 -0.957031 -31.707031 -2.6875 -31.78125 -4.5 C -31.851562 -6.320312 -32.050781 -8.726562 -32.375 -11.71875 C -32.695312 -14.675781 -33.015625 -17.035156 -33.328125 -18.796875 C -33.648438 -20.566406 -33.90625 -22.273438 -34.09375 -23.921875 C -34.164062 -24.648438 -33.9375 -25.226562 -33.40625 -25.65625 C -32.875 -26.09375 -32.238281 -26.351562 -31.5 -26.4375 L -28.984375 -26.703125 C -27.921875 -26.816406 -26.914062 -26.914062 -25.96875 -27 C -25.019531 -27.082031 -24.238281 -27.046875 -23.625 -26.890625 C -23.007812 -26.734375 -22.664062 -26.34375 -22.59375 -25.71875 C -22.507812 -24.945312 -22.835938 -24.238281 -23.578125 -23.59375 C -24.316406 -22.957031 -25.171875 -22.351562 -26.140625 -21.78125 C -27.117188 -21.21875 -27.984375 -20.660156 -28.734375 -20.109375 C -29.484375 -19.554688 -29.820312 -18.929688 -29.75 -18.234375 C -29.65625 -17.328125 -29.132812 -16.921875 -28.1875 -17.015625 L -10.109375 -19 C -8.671875 -19.15625 -7.59375 -19.375 -6.875 -19.65625 C -6.164062 -19.9375 -5.648438 -20.238281 -5.328125 -20.5625 C -5.003906 -20.894531 -4.738281 -21.175781 -4.53125 -21.40625 C -4.332031 -21.632812 -4.007812 -21.773438 -3.5625 -21.828125 C -2.945312 -21.890625 -2.507812 -21.695312 -2.25 -21.25 C -1.988281 -20.800781 -1.820312 -20.234375 -1.75 -19.546875 C -1.664062 -18.765625 -1.640625 -17.941406 -1.671875 -17.078125 C -1.703125 -16.222656 -1.6875 -15.488281 -1.625 -14.875 C -1.550781 -14.269531 -1.40625 -13.550781 -1.1875 -12.71875 C -0.976562 -11.894531 -0.832031 -11.113281 -0.75 -10.375 C -0.675781 -9.675781 -0.71875 -9.078125 -0.875 -8.578125 C -1.03125 -8.085938 -1.414062 -7.8125 -2.03125 -7.75 C -2.476562 -7.695312 -2.820312 -7.757812 -3.0625 -7.9375 C -3.3125 -8.113281 -3.628906 -8.328125 -4.015625 -8.578125 C -4.398438 -8.828125 -4.96875 -9.015625 -5.71875 -9.140625 C -6.476562 -9.265625 -7.578125 -9.25 -9.015625 -9.09375 L -27.09375 -7.109375 C -28.039062 -7.015625 -28.46875 -6.519531 -28.375 -5.625 C -28.300781 -4.96875 -27.835938 -4.4375 -26.984375 -4.03125 C -26.128906 -3.625 -25.160156 -3.25 -24.078125 -2.90625 C -23.003906 -2.570312 -22.039062 -2.171875 -21.1875 -1.703125 C -20.332031 -1.242188 -19.863281 -0.625 -19.78125 0.15625 Z M 4.984375 -11.375 C 3.785156 -11.238281 2.707031 -11.550781 1.75 -12.3125 C 0.800781 -13.082031 0.265625 -14.0625 0.140625 -15.25 C 0.00390625 -16.488281 0.335938 -17.578125 1.140625 -18.515625 C 1.953125 -19.453125 3.195312 -20.015625 4.875 -20.203125 C 5.820312 -20.304688 6.796875 -20.234375 7.796875 -19.984375 C 8.804688 -19.742188 9.664062 -19.296875 10.375 -18.640625 C 11.09375 -17.992188 11.507812 -17.113281 11.625 -16 C 11.75 -14.851562 11.503906 -14.25 10.890625 -14.1875 C 10.640625 -14.15625 10.515625 -14.304688 10.515625 -14.640625 C 10.523438 -14.984375 10.410156 -15.347656 10.171875 -15.734375 C 9.867188 -16.148438 9.570312 -16.375 9.28125 -16.40625 C 8.988281 -16.4375 8.859375 -16.304688 8.890625 -16.015625 C 9.015625 -14.546875 8.691406 -13.4375 7.921875 -12.6875 C 7.148438 -11.9375 6.171875 -11.5 4.984375 -11.375 Z M 4.984375 -11.375 "/>
                </g>
              </g>
            </g>
            <g fill="#ebe5c1" fill-opacity="1">
              <g transform="translate(137.920321, 423.338252)">
                <g>
                  <path d="M 1.03125 -7.984375 C 0.84375 -5.679688 0.0234375 -4.03125 -1.421875 -3.03125 C -2.878906 -2.03125 -4.554688 -1.609375 -6.453125 -1.765625 C -9.203125 -1.992188 -11.28125 -3.195312 -12.6875 -5.375 C -14.101562 -7.5625 -15.023438 -10.328125 -15.453125 -13.671875 C -15.847656 -16.847656 -16.75 -18.492188 -18.15625 -18.609375 C -18.6875 -18.648438 -19.222656 -18.46875 -19.765625 -18.0625 C -20.316406 -17.65625 -20.640625 -16.894531 -20.734375 -15.78125 C -20.828125 -14.664062 -20.609375 -13.734375 -20.078125 -12.984375 C -19.546875 -12.242188 -18.914062 -11.570312 -18.1875 -10.96875 C -17.46875 -10.375 -16.835938 -9.738281 -16.296875 -9.0625 C -15.753906 -8.382812 -15.523438 -7.507812 -15.609375 -6.4375 C -15.671875 -5.726562 -15.96875 -5.132812 -16.5 -4.65625 C -17.03125 -4.175781 -17.648438 -3.96875 -18.359375 -4.03125 C -19.753906 -4.144531 -20.882812 -4.796875 -21.75 -5.984375 C -22.625 -7.179688 -23.234375 -8.695312 -23.578125 -10.53125 C -23.929688 -12.363281 -24.023438 -14.320312 -23.859375 -16.40625 C -23.671875 -18.664062 -23.140625 -20.691406 -22.265625 -22.484375 C -21.398438 -24.273438 -20.078125 -25.65625 -18.296875 -26.625 C -16.523438 -27.59375 -14.179688 -27.957031 -11.265625 -27.71875 L -5.78125 -27.28125 C -4.34375 -27.15625 -3.242188 -27.164062 -2.484375 -27.3125 C -1.734375 -27.46875 -1.164062 -27.671875 -0.78125 -27.921875 C -0.40625 -28.179688 -0.101562 -28.40625 0.125 -28.59375 C 0.363281 -28.789062 0.710938 -28.867188 1.171875 -28.828125 C 1.785156 -28.773438 2.179688 -28.554688 2.359375 -28.171875 C 2.535156 -27.785156 2.601562 -27.300781 2.5625 -26.71875 C 2.507812 -26.101562 2.390625 -25.429688 2.203125 -24.703125 C 2.015625 -23.972656 1.894531 -23.300781 1.84375 -22.6875 C 1.789062 -22.03125 1.773438 -21.453125 1.796875 -20.953125 C 1.828125 -20.460938 1.859375 -19.941406 1.890625 -19.390625 C 1.921875 -18.734375 1.789062 -18.15625 1.5 -17.65625 C 1.207031 -17.164062 0.734375 -16.90625 0.078125 -16.875 C -0.585938 -16.882812 -1.035156 -16.816406 -1.265625 -16.671875 C -1.503906 -16.523438 -1.632812 -16.328125 -1.65625 -16.078125 C -1.695312 -15.628906 -1.46875 -15.019531 -0.96875 -14.25 C -0.476562 -13.488281 0 -12.582031 0.46875 -11.53125 C 0.945312 -10.476562 1.132812 -9.296875 1.03125 -7.984375 Z M -8.1875 -11.53125 C -6.988281 -11.4375 -6.109375 -11.664062 -5.546875 -12.21875 C -4.984375 -12.769531 -4.671875 -13.457031 -4.609375 -14.28125 C -4.523438 -15.3125 -4.898438 -16.128906 -5.734375 -16.734375 C -6.566406 -17.335938 -7.582031 -17.6875 -8.78125 -17.78125 L -11.734375 -18.03125 C -12.847656 -18.113281 -13.179688 -17.625 -12.734375 -16.5625 C -12.460938 -15.875 -12.160156 -15.148438 -11.828125 -14.390625 C -11.492188 -13.640625 -11.0625 -12.992188 -10.53125 -12.453125 C -10 -11.921875 -9.21875 -11.613281 -8.1875 -11.53125 Z M -8.1875 -11.53125 "/>
                </g>
              </g>
            </g>
            <g fill="#ebe5c1" fill-opacity="1">
              <g transform="translate(144.786228, 369.340291)">
                <g>
                  <path d="M -0.96875 -0.921875 C -1.414062 -1.035156 -1.71875 -1.21875 -1.875 -1.46875 C -2.03125 -1.71875 -2.242188 -2.03125 -2.515625 -2.40625 C -2.785156 -2.78125 -3.25 -3.160156 -3.90625 -3.546875 C -4.5625 -3.941406 -5.585938 -4.332031 -6.984375 -4.71875 C -8.816406 -5.207031 -10.132812 -5.570312 -10.9375 -5.8125 C -11.75 -6.0625 -12.34375 -6.234375 -12.71875 -6.328125 C -13.101562 -6.429688 -13.535156 -6.550781 -14.015625 -6.6875 C -15.085938 -6.976562 -15.878906 -7.007812 -16.390625 -6.78125 C -16.898438 -6.5625 -17.316406 -6.3125 -17.640625 -6.03125 C -17.972656 -5.757812 -18.398438 -5.695312 -18.921875 -5.84375 C -19.515625 -6 -19.867188 -6.304688 -19.984375 -6.765625 C -20.097656 -7.222656 -20.132812 -7.84375 -20.09375 -8.625 C -20.050781 -9.40625 -20.070312 -10.359375 -20.15625 -11.484375 C -20.28125 -12.898438 -20.46875 -13.894531 -20.71875 -14.46875 C -20.976562 -15.039062 -21.191406 -15.476562 -21.359375 -15.78125 C -21.523438 -16.082031 -21.539062 -16.492188 -21.40625 -17.015625 C -21.207031 -17.722656 -20.757812 -18.113281 -20.0625 -18.1875 C -19.363281 -18.269531 -18.578125 -18.191406 -17.703125 -17.953125 L -17.46875 -17.890625 C -16.46875 -17.617188 -15.96875 -17.503906 -15.96875 -17.546875 C -15.976562 -17.585938 -16.351562 -17.984375 -17.09375 -18.734375 C -18.070312 -19.722656 -18.703125 -20.90625 -18.984375 -22.28125 C -19.265625 -23.664062 -19.253906 -24.914062 -18.953125 -26.03125 C -18.359375 -28.207031 -17.503906 -29.488281 -16.390625 -29.875 C -15.285156 -30.269531 -13.925781 -29.925781 -12.3125 -28.84375 C -11.007812 -27.976562 -10.140625 -27.28125 -9.703125 -26.75 C -9.265625 -26.226562 -9.09375 -25.789062 -9.1875 -25.4375 C -9.289062 -25.039062 -9.644531 -24.664062 -10.25 -24.3125 C -10.863281 -23.96875 -11.476562 -23.566406 -12.09375 -23.109375 C -12.707031 -22.660156 -13.128906 -22.019531 -13.359375 -21.1875 C -13.492188 -20.707031 -13.488281 -20.09375 -13.34375 -19.34375 C -13.195312 -18.601562 -12.769531 -17.882812 -12.0625 -17.1875 C -11.363281 -16.488281 -10.257812 -15.929688 -8.75 -15.515625 L -4.390625 -14.34375 C -2.992188 -13.957031 -1.910156 -13.765625 -1.140625 -13.765625 C -0.367188 -13.765625 0.222656 -13.859375 0.640625 -14.046875 C 1.054688 -14.234375 1.398438 -14.394531 1.671875 -14.53125 C 1.941406 -14.675781 2.300781 -14.691406 2.75 -14.578125 C 3.34375 -14.410156 3.675781 -14.070312 3.75 -13.5625 C 3.820312 -13.050781 3.765625 -12.460938 3.578125 -11.796875 C 3.378906 -11.035156 3.109375 -10.257812 2.765625 -9.46875 C 2.421875 -8.6875 2.164062 -8 2 -7.40625 C 1.84375 -6.8125 1.710938 -6.085938 1.609375 -5.234375 C 1.503906 -4.390625 1.359375 -3.609375 1.171875 -2.890625 C 0.984375 -2.210938 0.726562 -1.671875 0.40625 -1.265625 C 0.0820312 -0.867188 -0.375 -0.753906 -0.96875 -0.921875 Z M -0.96875 -0.921875 "/>
                </g>
              </g>
            </g>
            <g fill="#ebe5c1" fill-opacity="1">
              <g transform="translate(160.175504, 320.729725)">
                <g>
                  <path d="M 3.828125 -7.09375 C 2.828125 -5.007812 1.46875 -3.757812 -0.25 -3.34375 C -1.96875 -2.925781 -3.679688 -3.128906 -5.390625 -3.953125 C -7.867188 -5.148438 -9.375 -7.019531 -9.90625 -9.5625 C -10.445312 -12.113281 -10.320312 -15.03125 -9.53125 -18.3125 C -8.75 -21.414062 -8.992188 -23.273438 -10.265625 -23.890625 C -10.742188 -24.117188 -11.3125 -24.140625 -11.96875 -23.953125 C -12.632812 -23.773438 -13.210938 -23.179688 -13.703125 -22.171875 C -14.179688 -21.171875 -14.304688 -20.222656 -14.078125 -19.328125 C -13.847656 -18.429688 -13.503906 -17.578125 -13.046875 -16.765625 C -12.585938 -15.953125 -12.222656 -15.128906 -11.953125 -14.296875 C -11.691406 -13.460938 -11.789062 -12.566406 -12.25 -11.609375 C -12.5625 -10.960938 -13.050781 -10.515625 -13.71875 -10.265625 C -14.394531 -10.015625 -15.050781 -10.039062 -15.6875 -10.34375 C -16.945312 -10.945312 -17.769531 -11.960938 -18.15625 -13.390625 C -18.550781 -14.816406 -18.582031 -16.445312 -18.25 -18.28125 C -17.914062 -20.113281 -17.296875 -21.972656 -16.390625 -23.859375 C -15.398438 -25.898438 -14.175781 -27.601562 -12.71875 -28.96875 C -11.269531 -30.332031 -9.539062 -31.148438 -7.53125 -31.421875 C -5.53125 -31.691406 -3.210938 -31.191406 -0.578125 -29.921875 L 4.375 -27.53125 C 5.6875 -26.90625 6.71875 -26.523438 7.46875 -26.390625 C 8.226562 -26.265625 8.828125 -26.253906 9.265625 -26.359375 C 9.710938 -26.460938 10.082031 -26.5625 10.375 -26.65625 C 10.664062 -26.75 11.015625 -26.691406 11.421875 -26.484375 C 11.984375 -26.222656 12.28125 -25.878906 12.3125 -25.453125 C 12.34375 -25.035156 12.226562 -24.5625 11.96875 -24.03125 C 11.707031 -23.476562 11.359375 -22.890625 10.921875 -22.265625 C 10.484375 -21.648438 10.128906 -21.066406 9.859375 -20.515625 C 9.578125 -19.921875 9.359375 -19.390625 9.203125 -18.921875 C 9.046875 -18.453125 8.882812 -17.953125 8.71875 -17.421875 C 8.507812 -16.796875 8.179688 -16.304688 7.734375 -15.953125 C 7.285156 -15.597656 6.75 -15.523438 6.125 -15.734375 C 5.507812 -15.972656 5.0625 -16.066406 4.78125 -16.015625 C 4.507812 -15.960938 4.320312 -15.828125 4.21875 -15.609375 C 4.019531 -15.203125 4.015625 -14.550781 4.203125 -13.65625 C 4.390625 -12.769531 4.515625 -11.75 4.578125 -10.59375 C 4.648438 -9.445312 4.398438 -8.28125 3.828125 -7.09375 Z M -3.515625 -13.703125 C -2.429688 -13.179688 -1.523438 -13.078125 -0.796875 -13.390625 C -0.078125 -13.703125 0.457031 -14.226562 0.8125 -14.96875 C 1.257812 -15.90625 1.203125 -16.804688 0.640625 -17.671875 C 0.078125 -18.535156 -0.742188 -19.226562 -1.828125 -19.75 L -4.5 -21.03125 C -5.5 -21.519531 -5.984375 -21.179688 -5.953125 -20.015625 C -5.941406 -19.285156 -5.914062 -18.507812 -5.875 -17.6875 C -5.84375 -16.863281 -5.671875 -16.101562 -5.359375 -15.40625 C -5.054688 -14.71875 -4.441406 -14.148438 -3.515625 -13.703125 Z M -3.515625 -13.703125 "/>
                </g>
              </g>
            </g>
            <g fill="#ebe5c1" fill-opacity="1">
              <g transform="translate(186.361426, 272.611771)">
                <g/>
              </g>
            </g>
            <g fill="#ebe5c1" fill-opacity="1">
              <g transform="translate(207.011062, 244.74868)">
                <g>
                  <path d="M -0.40625 -1.265625 C -0.738281 -1.578125 -0.914062 -1.882812 -0.9375 -2.1875 C -0.96875 -2.488281 -1.007812 -2.863281 -1.0625 -3.3125 C -1.125 -3.769531 -1.351562 -4.328125 -1.75 -4.984375 C -2.144531 -5.640625 -2.863281 -6.46875 -3.90625 -7.46875 L -9.296875 -12.578125 C -10.484375 -13.773438 -11.609375 -14.878906 -12.671875 -15.890625 C -13.734375 -16.898438 -14.414062 -17.546875 -14.71875 -17.828125 C -15.757812 -18.816406 -16.617188 -19.492188 -17.296875 -19.859375 C -17.972656 -20.234375 -18.539062 -20.429688 -19 -20.453125 C -19.457031 -20.484375 -19.835938 -20.503906 -20.140625 -20.515625 C -20.453125 -20.523438 -20.769531 -20.6875 -21.09375 -21 C -21.539062 -21.425781 -21.675781 -21.878906 -21.5 -22.359375 C -21.320312 -22.847656 -20.992188 -23.34375 -20.515625 -23.84375 C -20.003906 -24.382812 -19.410156 -24.914062 -18.734375 -25.4375 C -18.054688 -25.957031 -17.503906 -26.445312 -17.078125 -26.90625 L -16.609375 -27.390625 C -15.617188 -28.441406 -14.675781 -29.523438 -13.78125 -30.640625 C -12.894531 -31.765625 -11.96875 -32.832031 -11 -33.84375 C -9.46875 -35.46875 -7.800781 -36.628906 -6 -37.328125 C -4.195312 -38.023438 -2.410156 -38.242188 -0.640625 -37.984375 C 1.128906 -37.734375 2.75 -36.910156 4.21875 -35.515625 C 5.445312 -34.347656 6.363281 -32.960938 6.96875 -31.359375 C 7.570312 -29.753906 7.691406 -28.054688 7.328125 -26.265625 C 6.972656 -24.472656 5.957031 -22.695312 4.28125 -20.9375 C 3.144531 -19.738281 2.015625 -18.910156 0.890625 -18.453125 C 0.015625 -18.085938 -0.117188 -17.617188 0.484375 -17.046875 L 2.953125 -14.703125 C 3.992188 -13.703125 4.851562 -13.019531 5.53125 -12.65625 C 6.207031 -12.289062 6.773438 -12.09375 7.234375 -12.0625 C 7.703125 -12.03125 8.085938 -12.007812 8.390625 -12 C 8.691406 -12 9.007812 -11.84375 9.34375 -11.53125 C 9.78125 -11.101562 9.910156 -10.644531 9.734375 -10.15625 C 9.554688 -9.664062 9.226562 -9.164062 8.75 -8.65625 C 8.207031 -8.09375 7.597656 -7.546875 6.921875 -7.015625 C 6.253906 -6.492188 5.707031 -6.007812 5.28125 -5.5625 C 4.863281 -5.113281 4.40625 -4.535156 3.90625 -3.828125 C 3.40625 -3.128906 2.898438 -2.515625 2.390625 -1.984375 C 1.910156 -1.472656 1.429688 -1.117188 0.953125 -0.921875 C 0.484375 -0.722656 0.03125 -0.835938 -0.40625 -1.265625 Z M -3.546875 -20.953125 C -2.890625 -20.328125 -2.207031 -20.390625 -1.5 -21.140625 C -0.675781 -22.003906 -0.503906 -23.046875 -0.984375 -24.265625 C -1.460938 -25.492188 -2.316406 -26.691406 -3.546875 -27.859375 C -4.921875 -29.171875 -6.179688 -30.03125 -7.328125 -30.4375 C -8.484375 -30.851562 -9.515625 -30.582031 -10.421875 -29.625 C -10.703125 -29.320312 -10.863281 -28.976562 -10.90625 -28.59375 C -10.957031 -28.21875 -10.804688 -27.859375 -10.453125 -27.515625 Z M -3.546875 -20.953125 "/>
                </g>
              </g>
            </g>
            <g fill="#ebe5c1" fill-opacity="1">
              <g transform="translate(246.562302, 206.737687)">
                <g>
                  <path d="M -0.1875 -1.3125 C -0.457031 -1.675781 -0.570312 -2.007812 -0.53125 -2.3125 C -0.5 -2.613281 -0.46875 -2.992188 -0.4375 -3.453125 C -0.414062 -3.910156 -0.535156 -4.5 -0.796875 -5.21875 C -1.066406 -5.9375 -1.628906 -6.882812 -2.484375 -8.0625 C -3.585938 -9.59375 -4.378906 -10.707031 -4.859375 -11.40625 C -5.335938 -12.101562 -5.691406 -12.609375 -5.921875 -12.921875 C -6.148438 -13.234375 -6.414062 -13.59375 -6.71875 -14 C -7.363281 -14.90625 -7.953125 -15.429688 -8.484375 -15.578125 C -9.023438 -15.722656 -9.507812 -15.789062 -9.9375 -15.78125 C -10.363281 -15.78125 -10.734375 -16 -11.046875 -16.4375 C -11.410156 -16.9375 -11.488281 -17.398438 -11.28125 -17.828125 C -11.082031 -18.253906 -10.722656 -18.753906 -10.203125 -19.328125 C -9.691406 -19.910156 -9.113281 -20.664062 -8.46875 -21.59375 C -7.6875 -22.78125 -7.207031 -23.675781 -7.03125 -24.28125 C -6.863281 -24.882812 -6.75 -25.359375 -6.6875 -25.703125 C -6.632812 -26.046875 -6.390625 -26.375 -5.953125 -26.6875 C -5.347656 -27.125 -4.753906 -27.148438 -4.171875 -26.765625 C -3.585938 -26.378906 -3.03125 -25.816406 -2.5 -25.078125 L -2.34375 -24.875 C -1.738281 -24.039062 -1.425781 -23.644531 -1.40625 -23.6875 C -1.382812 -23.726562 -1.425781 -24.273438 -1.53125 -25.328125 C -1.664062 -26.703125 -1.40625 -28.015625 -0.75 -29.265625 C -0.101562 -30.523438 0.6875 -31.492188 1.625 -32.171875 C 3.445312 -33.492188 4.910156 -33.957031 6.015625 -33.5625 C 7.117188 -33.164062 7.96875 -32.035156 8.5625 -30.171875 C 9.019531 -28.679688 9.253906 -27.59375 9.265625 -26.90625 C 9.273438 -26.226562 9.128906 -25.78125 8.828125 -25.5625 C 8.492188 -25.320312 7.976562 -25.253906 7.28125 -25.359375 C 6.59375 -25.472656 5.867188 -25.546875 5.109375 -25.578125 C 4.347656 -25.617188 3.617188 -25.382812 2.921875 -24.875 C 2.515625 -24.582031 2.132812 -24.101562 1.78125 -23.4375 C 1.4375 -22.769531 1.316406 -21.9375 1.421875 -20.9375 C 1.523438 -19.945312 2.035156 -18.820312 2.953125 -17.5625 L 5.59375 -13.90625 C 6.445312 -12.726562 7.171875 -11.898438 7.765625 -11.421875 C 8.359375 -10.941406 8.878906 -10.644531 9.328125 -10.53125 C 9.773438 -10.414062 10.144531 -10.328125 10.4375 -10.265625 C 10.726562 -10.203125 11.007812 -9.988281 11.28125 -9.625 C 11.644531 -9.125 11.695312 -8.648438 11.4375 -8.203125 C 11.175781 -7.753906 10.757812 -7.328125 10.1875 -6.921875 C 9.5625 -6.460938 8.863281 -6.035156 8.09375 -5.640625 C 7.332031 -5.242188 6.707031 -4.863281 6.21875 -4.5 C 5.71875 -4.132812 5.160156 -3.65625 4.546875 -3.0625 C 3.929688 -2.46875 3.320312 -1.953125 2.71875 -1.515625 C 2.15625 -1.109375 1.617188 -0.847656 1.109375 -0.734375 C 0.609375 -0.617188 0.175781 -0.8125 -0.1875 -1.3125 Z M -0.1875 -1.3125 "/>
                </g>
              </g>
            </g>
            <g fill="#ebe5c1" fill-opacity="1">
              <g transform="translate(289.080923, 178.591888)">
                <g>
                  <path d="M 13.390625 -5.953125 C 9.671875 -4.179688 6.238281 -3.796875 3.09375 -4.796875 C -0.0507812 -5.796875 -2.484375 -8.097656 -4.203125 -11.703125 C -5.929688 -15.359375 -6.179688 -18.707031 -4.953125 -21.75 C -3.734375 -24.789062 -1.265625 -27.195312 2.453125 -28.96875 C 6.179688 -30.726562 9.613281 -31.125 12.75 -30.15625 C 15.882812 -29.1875 18.316406 -26.875 20.046875 -23.21875 C 21.765625 -19.613281 22.015625 -16.273438 20.796875 -13.203125 C 19.585938 -10.128906 17.117188 -7.710938 13.390625 -5.953125 Z M 5.015625 -16.078125 C 5.742188 -14.546875 6.5 -13.179688 7.28125 -11.984375 C 8.0625 -10.785156 8.84375 -9.914062 9.625 -9.375 C 10.40625 -8.832031 11.164062 -8.738281 11.90625 -9.09375 C 12.6875 -9.457031 13.113281 -10.113281 13.1875 -11.0625 C 13.257812 -12.007812 13.066406 -13.160156 12.609375 -14.515625 C 12.148438 -15.867188 11.554688 -17.3125 10.828125 -18.84375 C 10.085938 -20.40625 9.335938 -21.78125 8.578125 -22.96875 C 7.828125 -24.164062 7.0625 -25.035156 6.28125 -25.578125 C 5.5 -26.128906 4.71875 -26.222656 3.9375 -25.859375 C 3.195312 -25.503906 2.789062 -24.847656 2.71875 -23.890625 C 2.644531 -22.941406 2.820312 -21.789062 3.25 -20.4375 C 3.6875 -19.09375 4.273438 -17.640625 5.015625 -16.078125 Z M 5.015625 -16.078125 "/>
                </g>
              </g>
            </g>
            <g fill="#ebe5c1" fill-opacity="1">
              <g transform="translate(338.486474, 156.974272)">
                <g>
                  <path d="M 7.78125 -1.765625 C 7.175781 -1.628906 6.472656 -1.40625 5.671875 -1.09375 C 4.878906 -0.789062 4.125 -0.554688 3.40625 -0.390625 C 2.707031 -0.234375 2.101562 -0.203125 1.59375 -0.296875 C 1.09375 -0.398438 0.773438 -0.75 0.640625 -1.34375 C 0.546875 -1.789062 0.570312 -2.144531 0.71875 -2.40625 C 0.875 -2.675781 1.050781 -3.015625 1.25 -3.421875 C 1.445312 -3.828125 1.5625 -4.414062 1.59375 -5.1875 C 1.632812 -5.957031 1.5 -7.046875 1.1875 -8.453125 C 0.757812 -10.304688 0.460938 -11.644531 0.296875 -12.46875 C 0.128906 -13.300781 0.00390625 -13.90625 -0.078125 -14.28125 C -0.160156 -14.664062 -0.257812 -15.101562 -0.375 -15.59375 C -0.625 -16.675781 -0.960938 -17.390625 -1.390625 -17.734375 C -1.828125 -18.078125 -2.25 -18.328125 -2.65625 -18.484375 C -3.0625 -18.648438 -3.320312 -18.992188 -3.4375 -19.515625 C -3.570312 -20.117188 -3.460938 -20.578125 -3.109375 -20.890625 C -2.753906 -21.210938 -2.222656 -21.535156 -1.515625 -21.859375 C -0.804688 -22.179688 0.0234375 -22.644531 0.984375 -23.25 C 2.160156 -24.03125 2.945312 -24.664062 3.34375 -25.15625 C 3.75 -25.644531 4.039062 -26.035156 4.21875 -26.328125 C 4.394531 -26.628906 4.75 -26.835938 5.28125 -26.953125 C 6 -27.117188 6.550781 -26.910156 6.9375 -26.328125 C 7.320312 -25.742188 7.613281 -25.007812 7.8125 -24.125 L 7.9375 -23.640625 C 8.0625 -23.066406 8.226562 -22.800781 8.4375 -22.84375 C 8.632812 -22.882812 8.898438 -23.191406 9.234375 -23.765625 C 9.578125 -24.335938 10.03125 -25.003906 10.59375 -25.765625 C 11.164062 -26.523438 11.890625 -27.25 12.765625 -27.9375 C 13.648438 -28.625 14.710938 -29.109375 15.953125 -29.390625 C 17.203125 -29.671875 18.28125 -29.671875 19.1875 -29.390625 C 20.09375 -29.109375 20.847656 -28.722656 21.453125 -28.234375 C 22.054688 -27.742188 22.550781 -27.296875 22.9375 -26.890625 C 23.320312 -26.484375 23.597656 -26.296875 23.765625 -26.328125 C 24.035156 -26.390625 24.34375 -26.695312 24.6875 -27.25 C 25.03125 -27.800781 25.46875 -28.460938 26 -29.234375 C 26.539062 -30.015625 27.253906 -30.75 28.140625 -31.4375 C 29.023438 -32.125 30.148438 -32.625 31.515625 -32.9375 C 33.410156 -33.363281 34.929688 -33.285156 36.078125 -32.703125 C 37.222656 -32.117188 38.101562 -31.257812 38.71875 -30.125 C 39.332031 -29 39.78125 -27.816406 40.0625 -26.578125 L 42.078125 -17.765625 C 42.390625 -16.359375 42.726562 -15.316406 43.09375 -14.640625 C 43.46875 -13.960938 43.820312 -13.476562 44.15625 -13.1875 C 44.5 -12.90625 44.804688 -12.679688 45.078125 -12.515625 C 45.359375 -12.347656 45.546875 -12.039062 45.640625 -11.59375 C 45.773438 -11 45.691406 -10.5625 45.390625 -10.28125 C 45.085938 -10 44.660156 -9.796875 44.109375 -9.671875 C 43.546875 -9.535156 42.878906 -9.441406 42.109375 -9.390625 C 41.335938 -9.347656 40.613281 -9.25 39.9375 -9.09375 C 39.289062 -8.945312 38.738281 -8.789062 38.28125 -8.625 C 37.832031 -8.457031 37.359375 -8.269531 36.859375 -8.0625 C 36.078125 -7.8125 35.382812 -7.847656 34.78125 -8.171875 C 34.175781 -8.503906 33.78125 -9.078125 33.59375 -9.890625 L 31.34375 -19.765625 C 30.90625 -21.703125 30.378906 -23.128906 29.765625 -24.046875 C 29.160156 -24.960938 28.335938 -25.300781 27.296875 -25.0625 C 26.453125 -24.875 25.8125 -24.332031 25.375 -23.4375 C 24.945312 -22.550781 24.988281 -20.988281 25.5 -18.75 L 26.53125 -14.21875 C 26.84375 -12.8125 27.179688 -11.769531 27.546875 -11.09375 C 27.910156 -10.414062 28.269531 -9.9375 28.625 -9.65625 C 28.988281 -9.375 29.296875 -9.144531 29.546875 -8.96875 C 29.796875 -8.800781 29.96875 -8.492188 30.0625 -8.046875 C 30.195312 -7.453125 30.117188 -7.015625 29.828125 -6.734375 C 29.535156 -6.453125 29.109375 -6.25 28.546875 -6.125 C 27.984375 -6 27.316406 -5.910156 26.546875 -5.859375 C 25.773438 -5.804688 25.046875 -5.703125 24.359375 -5.546875 C 23.722656 -5.398438 23.179688 -5.242188 22.734375 -5.078125 C 22.285156 -4.910156 21.804688 -4.726562 21.296875 -4.53125 C 20.503906 -4.269531 19.804688 -4.300781 19.203125 -4.625 C 18.609375 -4.957031 18.21875 -5.53125 18.03125 -6.34375 L 15.78125 -16.21875 C 15.34375 -18.15625 14.804688 -19.578125 14.171875 -20.484375 C 13.546875 -21.398438 12.707031 -21.738281 11.65625 -21.5 C 10.726562 -21.289062 10.085938 -20.648438 9.734375 -19.578125 C 9.390625 -18.503906 9.550781 -16.503906 10.21875 -13.578125 L 10.890625 -10.671875 C 11.203125 -9.265625 11.539062 -8.21875 11.90625 -7.53125 C 12.28125 -6.851562 12.644531 -6.375 13 -6.09375 C 13.363281 -5.820312 13.671875 -5.597656 13.921875 -5.421875 C 14.179688 -5.242188 14.359375 -4.929688 14.453125 -4.484375 C 14.585938 -3.890625 14.445312 -3.4375 14.03125 -3.125 C 13.613281 -2.820312 13.066406 -2.59375 12.390625 -2.4375 C 11.617188 -2.269531 10.804688 -2.148438 9.953125 -2.078125 C 9.109375 -2.015625 8.382812 -1.910156 7.78125 -1.765625 Z M 7.78125 -1.765625 "/>
                </g>
              </g>
            </g>
            <g fill="#ebe5c1" fill-opacity="1">
              <g transform="translate(410.182708, 144.785072)">
                <g>
                  <path d="M 7.859375 -0.21875 C 7.234375 -0.195312 6.5 -0.113281 5.65625 0.03125 C 4.820312 0.175781 4.035156 0.257812 3.296875 0.28125 C 2.597656 0.300781 2.003906 0.210938 1.515625 0.015625 C 1.035156 -0.171875 0.785156 -0.570312 0.765625 -1.1875 C 0.753906 -1.644531 0.847656 -1.988281 1.046875 -2.21875 C 1.253906 -2.445312 1.492188 -2.742188 1.765625 -3.109375 C 2.046875 -3.472656 2.28125 -4.023438 2.46875 -4.765625 C 2.65625 -5.515625 2.726562 -6.613281 2.6875 -8.0625 C 2.632812 -9.957031 2.609375 -11.328125 2.609375 -12.171875 C 2.609375 -13.015625 2.601562 -13.628906 2.59375 -14.015625 C 2.582031 -14.410156 2.566406 -14.859375 2.546875 -15.359375 C 2.523438 -16.472656 2.332031 -17.238281 1.96875 -17.65625 C 1.601562 -18.082031 1.238281 -18.410156 0.875 -18.640625 C 0.519531 -18.878906 0.335938 -19.269531 0.328125 -19.8125 C 0.304688 -20.414062 0.5 -20.835938 0.90625 -21.078125 C 1.320312 -21.328125 1.90625 -21.539062 2.65625 -21.71875 C 3.414062 -21.90625 4.328125 -22.195312 5.390625 -22.59375 C 6.703125 -23.132812 7.597656 -23.601562 8.078125 -24 C 8.566406 -24.40625 8.925781 -24.734375 9.15625 -24.984375 C 9.394531 -25.242188 9.785156 -25.378906 10.328125 -25.390625 C 11.066406 -25.410156 11.566406 -25.09375 11.828125 -24.4375 C 12.097656 -23.789062 12.242188 -23.015625 12.265625 -22.109375 L 12.640625 -8.328125 C 12.679688 -6.878906 12.816406 -5.785156 13.046875 -5.046875 C 13.273438 -4.316406 13.535156 -3.78125 13.828125 -3.4375 C 14.128906 -3.09375 14.382812 -2.8125 14.59375 -2.59375 C 14.8125 -2.375 14.925781 -2.035156 14.9375 -1.578125 C 14.957031 -0.960938 14.734375 -0.546875 14.265625 -0.328125 C 13.796875 -0.109375 13.210938 0.0078125 12.515625 0.03125 C 11.722656 0.0507812 10.898438 0.015625 10.046875 -0.078125 C 9.203125 -0.179688 8.472656 -0.226562 7.859375 -0.21875 Z M 0.0625 -26.84375 C -0.375 -28.070312 -0.191406 -29.421875 0.609375 -30.890625 C 1.421875 -32.359375 2.675781 -33.566406 4.375 -34.515625 C 5.800781 -35.296875 7.113281 -35.703125 8.3125 -35.734375 C 10.125 -35.785156 11.320312 -35.078125 11.90625 -33.609375 C 12.394531 -32.335938 12.234375 -30.988281 11.421875 -29.5625 C 10.617188 -28.144531 9.359375 -26.9375 7.640625 -25.9375 C 6.179688 -25.164062 4.851562 -24.765625 3.65625 -24.734375 C 1.882812 -24.679688 0.6875 -25.382812 0.0625 -26.84375 Z M 0.0625 -26.84375 "/>
                </g>
              </g>
            </g>
            <g fill="#ebe5c1" fill-opacity="1">
              <g transform="translate(451.033657, 145.2823)">
                <g>
                  <path d="M 2 -5.734375 C 2.113281 -6.546875 2.4375 -7.160156 2.96875 -7.578125 C 3.507812 -8.003906 4.234375 -8.160156 5.140625 -8.046875 C 5.921875 -7.941406 6.515625 -7.566406 6.921875 -6.921875 C 7.335938 -6.285156 7.757812 -5.5625 8.1875 -4.75 C 8.625 -3.945312 9.210938 -3.203125 9.953125 -2.515625 C 10.691406 -1.835938 11.753906 -1.410156 13.140625 -1.234375 C 14.203125 -1.085938 15.054688 -1.085938 15.703125 -1.234375 C 16.347656 -1.378906 16.726562 -1.859375 16.84375 -2.671875 C 16.925781 -3.328125 16.632812 -3.90625 15.96875 -4.40625 C 15.3125 -4.914062 14.453125 -5.414062 13.390625 -5.90625 C 12.335938 -6.40625 11.210938 -6.953125 10.015625 -7.546875 C 8.828125 -8.148438 7.726562 -8.847656 6.71875 -9.640625 C 5.707031 -10.441406 4.910156 -11.410156 4.328125 -12.546875 C 3.753906 -13.691406 3.578125 -15.0625 3.796875 -16.65625 C 4.035156 -18.457031 4.632812 -19.84375 5.59375 -20.8125 C 6.5625 -21.789062 7.691406 -22.460938 8.984375 -22.828125 C 10.285156 -23.191406 11.546875 -23.375 12.765625 -23.375 C 13.992188 -23.375 15 -23.320312 15.78125 -23.21875 C 17.863281 -22.9375 19.769531 -22.429688 21.5 -21.703125 C 23.238281 -20.972656 24.59375 -20.050781 25.5625 -18.9375 C 26.539062 -17.832031 26.9375 -16.585938 26.75 -15.203125 C 26.65625 -14.503906 26.320312 -13.941406 25.75 -13.515625 C 25.175781 -13.097656 24.539062 -12.9375 23.84375 -13.03125 C 22.78125 -13.164062 21.960938 -13.570312 21.390625 -14.25 C 20.816406 -14.9375 20.3125 -15.695312 19.875 -16.53125 C 19.445312 -17.363281 18.925781 -18.117188 18.3125 -18.796875 C 17.695312 -19.484375 16.835938 -19.898438 15.734375 -20.046875 C 14.640625 -20.191406 13.878906 -20.03125 13.453125 -19.5625 C 13.023438 -19.09375 12.78125 -18.597656 12.71875 -18.078125 C 12.613281 -17.304688 12.878906 -16.664062 13.515625 -16.15625 C 14.160156 -15.65625 15.015625 -15.195312 16.078125 -14.78125 C 17.148438 -14.375 18.273438 -13.921875 19.453125 -13.421875 C 20.640625 -12.929688 21.75 -12.335938 22.78125 -11.640625 C 23.8125 -10.941406 24.609375 -10.046875 25.171875 -8.953125 C 25.734375 -7.859375 25.90625 -6.492188 25.6875 -4.859375 C 25.40625 -2.773438 24.578125 -1.1875 23.203125 -0.09375 C 21.828125 0.988281 20.160156 1.675781 18.203125 1.96875 C 16.253906 2.269531 14.238281 2.285156 12.15625 2.015625 C 11.300781 1.898438 10.269531 1.65625 9.0625 1.28125 C 7.863281 0.90625 6.691406 0.40625 5.546875 -0.21875 C 4.410156 -0.851562 3.492188 -1.625 2.796875 -2.53125 C 2.109375 -3.4375 1.84375 -4.503906 2 -5.734375 Z M 2 -5.734375 "/>
                </g>
              </g>
            </g>
            <g fill="#ebe5c1" fill-opacity="1">
              <g transform="translate(501.302039, 154.179292)">
                <g>
                  <path d="M 7.234375 2.765625 C 5.035156 2.046875 3.617188 0.863281 2.984375 -0.78125 C 2.347656 -2.425781 2.328125 -4.148438 2.921875 -5.953125 C 3.773438 -8.578125 5.425781 -10.320312 7.875 -11.1875 C 10.332031 -12.050781 13.242188 -12.300781 16.609375 -11.9375 C 19.796875 -11.582031 21.609375 -12.078125 22.046875 -13.421875 C 22.210938 -13.921875 22.15625 -14.484375 21.875 -15.109375 C 21.601562 -15.742188 20.9375 -16.234375 19.875 -16.578125 C 18.820312 -16.929688 17.867188 -16.9375 17.015625 -16.59375 C 16.160156 -16.25 15.359375 -15.796875 14.609375 -15.234375 C 13.859375 -14.671875 13.085938 -14.203125 12.296875 -13.828125 C 11.515625 -13.460938 10.613281 -13.445312 9.59375 -13.78125 C 8.914062 -14 8.410156 -14.421875 8.078125 -15.046875 C 7.753906 -15.671875 7.703125 -16.320312 7.921875 -17 C 8.359375 -18.320312 9.253906 -19.269531 10.609375 -19.84375 C 11.960938 -20.425781 13.566406 -20.671875 15.421875 -20.578125 C 17.285156 -20.492188 19.21875 -20.125 21.21875 -19.46875 C 23.363281 -18.757812 25.207031 -17.773438 26.75 -16.515625 C 28.300781 -15.253906 29.335938 -13.644531 29.859375 -11.6875 C 30.390625 -9.738281 30.203125 -7.375 29.296875 -4.59375 L 27.578125 0.625 C 27.128906 2 26.890625 3.070312 26.859375 3.84375 C 26.828125 4.613281 26.890625 5.210938 27.046875 5.640625 C 27.210938 6.066406 27.359375 6.414062 27.484375 6.6875 C 27.609375 6.96875 27.597656 7.328125 27.453125 7.765625 C 27.265625 8.347656 26.960938 8.679688 26.546875 8.765625 C 26.140625 8.847656 25.660156 8.800781 25.109375 8.625 C 24.515625 8.425781 23.882812 8.148438 23.21875 7.796875 C 22.5625 7.453125 21.9375 7.179688 21.34375 6.984375 C 20.71875 6.785156 20.15625 6.632812 19.65625 6.53125 C 19.164062 6.4375 18.65625 6.347656 18.125 6.265625 C 17.46875 6.140625 16.929688 5.878906 16.515625 5.484375 C 16.109375 5.085938 15.96875 4.5625 16.09375 3.90625 C 16.257812 3.269531 16.296875 2.816406 16.203125 2.546875 C 16.117188 2.273438 15.960938 2.101562 15.734375 2.03125 C 15.304688 1.882812 14.660156 1.960938 13.796875 2.265625 C 12.941406 2.578125 11.945312 2.84375 10.8125 3.0625 C 9.6875 3.28125 8.492188 3.179688 7.234375 2.765625 Z M 16.640625 -26.78125 C 16.703125 -26.96875 16.804688 -27.125 16.953125 -27.25 C 17.109375 -27.375 17.285156 -27.398438 17.484375 -27.328125 C 17.566406 -27.304688 17.644531 -27.21875 17.71875 -27.0625 C 17.800781 -26.90625 17.898438 -26.75 18.015625 -26.59375 C 18.253906 -26.25 18.675781 -25.820312 19.28125 -25.3125 C 19.894531 -24.8125 21.007812 -24.296875 22.625 -23.765625 C 24.226562 -23.234375 25.425781 -22.988281 26.21875 -23.03125 C 27.019531 -23.082031 27.613281 -23.175781 28 -23.3125 C 28.238281 -23.351562 28.425781 -23.414062 28.5625 -23.5 C 28.695312 -23.59375 28.828125 -23.617188 28.953125 -23.578125 C 29.140625 -23.515625 29.242188 -23.390625 29.265625 -23.203125 C 29.296875 -23.023438 29.28125 -22.84375 29.21875 -22.65625 C 28.894531 -21.664062 28.078125 -20.894531 26.765625 -20.34375 C 25.460938 -19.800781 23.71875 -19.890625 21.53125 -20.609375 C 19.375 -21.316406 17.9375 -22.273438 17.21875 -23.484375 C 16.507812 -24.691406 16.316406 -25.789062 16.640625 -26.78125 Z M 18.78125 -8.625 C 18.050781 -8.519531 17.28125 -8.394531 16.46875 -8.25 C 15.664062 -8.101562 14.9375 -7.828125 14.28125 -7.421875 C 13.632812 -7.023438 13.148438 -6.335938 12.828125 -5.359375 C 12.453125 -4.222656 12.46875 -3.316406 12.875 -2.640625 C 13.289062 -1.972656 13.890625 -1.507812 14.671875 -1.25 C 15.648438 -0.925781 16.53125 -1.097656 17.3125 -1.765625 C 18.101562 -2.441406 18.679688 -3.351562 19.046875 -4.5 L 19.96875 -7.3125 C 20.320312 -8.375 19.925781 -8.8125 18.78125 -8.625 Z M 18.78125 -8.625 "/>
                </g>
              </g>
            </g>
          </g>
        </g>
      </g>
    </g>
  </g>
<title>Title</title></svg>
