<svg xmlns="http://www.w3.org/2000/svg" xmlns:xlink="http://www.w3.org/1999/xlink" width="500" zoomAndPan="magnify" viewBox="0 0 375 374.999991" height="500" preserveAspectRatio="xMidYMid meet" version="1.0"><defs><g/><clipPath id="ab7c86024c"><path d="M 0.160156 66 L 296.078125 66 L 296.078125 292.078125 L 0.160156 292.078125 Z M 0.160156 66 " clip-rule="nonzero"/></clipPath><clipPath id="d78d68eada"><rect x="0" width="297" y="0" height="227"/></clipPath><clipPath id="2a3790963a"><path d="M 2.394531 33 L 41 33 L 41 57 L 2.394531 57 Z M 2.394531 33 " clip-rule="nonzero"/></clipPath><clipPath id="6ba4563fbc"><path d="M 42 0.304688 L 63 0.304688 L 63 38 L 42 38 Z M 42 0.304688 " clip-rule="nonzero"/></clipPath><clipPath id="8b347d4342"><path d="M 2.394531 54 L 37 54 L 37 73 L 2.394531 73 Z M 2.394531 54 " clip-rule="nonzero"/></clipPath><clipPath id="a480c783fb"><path d="M 69 54 L 103.015625 54 L 103.015625 73 L 69 73 Z M 69 54 " clip-rule="nonzero"/></clipPath><clipPath id="e0c00f9c5b"><path d="M 43 70 L 63 70 L 63 105.628906 L 43 105.628906 Z M 43 70 " clip-rule="nonzero"/></clipPath><clipPath id="b1474a99df"><rect x="0" width="29" y="0" height="34"/></clipPath><clipPath id="ec2ec6f064"><rect x="0" width="297" y="0" height="293"/></clipPath></defs><rect x="-37.5" width="450" fill="#ffffff" y="-37.499999" height="449.999989" fill-opacity="1"/><rect x="-37.5" width="450" fill="#7f7537" y="-37.499999" height="449.999989" fill-opacity="1"/><g transform="matrix(1, 0, 0, 1, 38, 42)"><g clip-path="url(#ec2ec6f064)"><g clip-path="url(#ab7c86024c)"><g transform="matrix(1, 0, 0, 1, 0, 66)"><g clip-path="url(#d78d68eada)"><g fill="#ebe5c1" fill-opacity="1"><g transform="translate(0.938867, 120.958154)"><g><path d="M 52.28125 -3.25 C 50.363281 -1.832031 48.007812 -0.769531 45.21875 -0.0625 C 42.4375 0.644531 39.507812 1 36.4375 1 C 28.445312 1 22.269531 -1.035156 17.90625 -5.109375 C 13.539062 -9.191406 11.359375 -15.179688 11.359375 -23.078125 L 11.359375 -50.65625 L 1 -50.65625 L 1 -65.640625 L 11.359375 -65.640625 L 11.359375 -81.984375 L 30.828125 -81.984375 L 30.828125 -65.640625 L 47.546875 -65.640625 L 47.546875 -50.65625 L 30.828125 -50.65625 L 30.828125 -23.328125 C 30.828125 -20.503906 31.550781 -18.320312 33 -16.78125 C 34.457031 -15.238281 36.519531 -14.46875 39.1875 -14.46875 C 42.257812 -14.46875 44.878906 -15.300781 47.046875 -16.96875 Z M 52.28125 -3.25 "/></g></g></g><g fill="#ebe5c1" fill-opacity="1"><g transform="translate(45.111102, 120.958154)"><g><path d="M 27.578125 -58.265625 C 29.910156 -61.515625 33.050781 -63.96875 37 -65.625 C 40.945312 -67.289062 45.5 -68.125 50.65625 -68.125 L 50.65625 -50.15625 C 48.5 -50.320312 47.046875 -50.40625 46.296875 -50.40625 C 40.722656 -50.40625 36.351562 -48.84375 33.1875 -45.71875 C 30.03125 -42.601562 28.453125 -37.925781 28.453125 -31.6875 L 28.453125 0 L 8.984375 0 L 8.984375 -67.125 L 27.578125 -67.125 Z M 27.578125 -58.265625 "/></g></g></g><g fill="#ebe5c1" fill-opacity="1"><g transform="translate(88.784214, 120.958154)"><g><path d="M 36.0625 -68.125 C 46.457031 -68.125 54.441406 -65.648438 60.015625 -60.703125 C 65.585938 -55.753906 68.375 -48.289062 68.375 -38.3125 L 68.375 0 L 50.15625 0 L 50.15625 -8.359375 C 46.5 -2.117188 39.679688 1 29.703125 1 C 24.546875 1 20.070312 0.125 16.28125 -1.625 C 12.5 -3.375 9.609375 -5.785156 7.609375 -8.859375 C 5.609375 -11.929688 4.609375 -15.425781 4.609375 -19.34375 C 4.609375 -25.582031 6.957031 -30.488281 11.65625 -34.0625 C 16.363281 -37.644531 23.625 -39.4375 33.4375 -39.4375 L 48.921875 -39.4375 C 48.921875 -43.675781 47.628906 -46.9375 45.046875 -49.21875 C 42.460938 -51.507812 38.59375 -52.65625 33.4375 -52.65625 C 29.863281 -52.65625 26.347656 -52.09375 22.890625 -50.96875 C 19.441406 -49.84375 16.507812 -48.328125 14.09375 -46.421875 L 7.109375 -60.015625 C 10.773438 -62.597656 15.164062 -64.59375 20.28125 -66 C 25.394531 -67.414062 30.65625 -68.125 36.0625 -68.125 Z M 34.5625 -12.109375 C 37.894531 -12.109375 40.847656 -12.875 43.421875 -14.40625 C 46.003906 -15.945312 47.835938 -18.21875 48.921875 -21.21875 L 48.921875 -28.078125 L 35.5625 -28.078125 C 27.570312 -28.078125 23.578125 -25.457031 23.578125 -20.21875 C 23.578125 -17.71875 24.554688 -15.738281 26.515625 -14.28125 C 28.472656 -12.832031 31.15625 -12.109375 34.5625 -12.109375 Z M 34.5625 -12.109375 "/></g></g></g><g fill="#ebe5c1" fill-opacity="1"><g transform="translate(155.666617, 120.958154)"><g><path d="M 49.78125 -68.125 C 58.101562 -68.125 64.820312 -65.628906 69.9375 -60.640625 C 75.050781 -55.648438 77.609375 -48.25 77.609375 -38.4375 L 77.609375 0 L 58.140625 0 L 58.140625 -35.4375 C 58.140625 -40.757812 56.972656 -44.726562 54.640625 -47.34375 C 52.316406 -49.96875 48.953125 -51.28125 44.546875 -51.28125 C 39.640625 -51.28125 35.726562 -49.757812 32.8125 -46.71875 C 29.90625 -43.6875 28.453125 -39.175781 28.453125 -33.1875 L 28.453125 0 L 8.984375 0 L 8.984375 -67.125 L 27.578125 -67.125 L 27.578125 -59.265625 C 30.148438 -62.097656 33.347656 -64.28125 37.171875 -65.8125 C 41.003906 -67.351562 45.207031 -68.125 49.78125 -68.125 Z M 49.78125 -68.125 "/></g></g></g><g fill="#ebe5c1" fill-opacity="1"><g transform="translate(231.782846, 120.958154)"><g><path d="M 31.5625 1 C 25.988281 1 20.539062 0.3125 15.21875 -1.0625 C 9.894531 -2.4375 5.65625 -4.160156 2.5 -6.234375 L 8.984375 -20.21875 C 11.972656 -18.300781 15.585938 -16.738281 19.828125 -15.53125 C 24.078125 -14.320312 28.238281 -13.71875 32.3125 -13.71875 C 40.550781 -13.71875 44.671875 -15.757812 44.671875 -19.84375 C 44.671875 -21.75 43.546875 -23.117188 41.296875 -23.953125 C 39.054688 -24.785156 35.609375 -25.492188 30.953125 -26.078125 C 25.453125 -26.910156 20.914062 -27.867188 17.34375 -28.953125 C 13.769531 -30.035156 10.671875 -31.945312 8.046875 -34.6875 C 5.429688 -37.4375 4.125 -41.347656 4.125 -46.421875 C 4.125 -50.660156 5.347656 -54.421875 7.796875 -57.703125 C 10.253906 -60.992188 13.832031 -63.550781 18.53125 -65.375 C 23.226562 -67.207031 28.78125 -68.125 35.1875 -68.125 C 39.925781 -68.125 44.644531 -67.601562 49.34375 -66.5625 C 54.050781 -65.53125 57.941406 -64.097656 61.015625 -62.265625 L 54.53125 -48.421875 C 48.625 -51.742188 42.175781 -53.40625 35.1875 -53.40625 C 31.03125 -53.40625 27.910156 -52.820312 25.828125 -51.65625 C 23.742188 -50.488281 22.703125 -48.992188 22.703125 -47.171875 C 22.703125 -45.085938 23.828125 -43.628906 26.078125 -42.796875 C 28.328125 -41.960938 31.90625 -41.171875 36.8125 -40.421875 C 42.300781 -39.515625 46.789062 -38.539062 50.28125 -37.5 C 53.78125 -36.457031 56.816406 -34.5625 59.390625 -31.8125 C 61.972656 -29.070312 63.265625 -25.25 63.265625 -20.34375 C 63.265625 -16.175781 62.015625 -12.472656 59.515625 -9.234375 C 57.023438 -5.992188 53.382812 -3.476562 48.59375 -1.6875 C 43.8125 0.101562 38.132812 1 31.5625 1 Z M 31.5625 1 "/></g></g></g><g fill="#ebe5c1" fill-opacity="1"><g transform="translate(4.93496, 194.458149)"><g><path d="M 8.984375 -92.59375 L 28.453125 -92.59375 L 28.453125 0 L 8.984375 0 Z M 8.984375 -92.59375 "/></g></g></g><g fill="#ebe5c1" fill-opacity="1"><g transform="translate(32.386519, 194.458149)"><g><path d="M 36.0625 -68.125 C 46.457031 -68.125 54.441406 -65.648438 60.015625 -60.703125 C 65.585938 -55.753906 68.375 -48.289062 68.375 -38.3125 L 68.375 0 L 50.15625 0 L 50.15625 -8.359375 C 46.5 -2.117188 39.679688 1 29.703125 1 C 24.546875 1 20.070312 0.125 16.28125 -1.625 C 12.5 -3.375 9.609375 -5.785156 7.609375 -8.859375 C 5.609375 -11.929688 4.609375 -15.425781 4.609375 -19.34375 C 4.609375 -25.582031 6.957031 -30.488281 11.65625 -34.0625 C 16.363281 -37.644531 23.625 -39.4375 33.4375 -39.4375 L 48.921875 -39.4375 C 48.921875 -43.675781 47.628906 -46.9375 45.046875 -49.21875 C 42.460938 -51.507812 38.59375 -52.65625 33.4375 -52.65625 C 29.863281 -52.65625 26.347656 -52.09375 22.890625 -50.96875 C 19.441406 -49.84375 16.507812 -48.328125 14.09375 -46.421875 L 7.109375 -60.015625 C 10.773438 -62.597656 15.164062 -64.59375 20.28125 -66 C 25.394531 -67.414062 30.65625 -68.125 36.0625 -68.125 Z M 34.5625 -12.109375 C 37.894531 -12.109375 40.847656 -12.875 43.421875 -14.40625 C 46.003906 -15.945312 47.835938 -18.21875 48.921875 -21.21875 L 48.921875 -28.078125 L 35.5625 -28.078125 C 27.570312 -28.078125 23.578125 -25.457031 23.578125 -20.21875 C 23.578125 -17.71875 24.554688 -15.738281 26.515625 -14.28125 C 28.472656 -12.832031 31.15625 -12.109375 34.5625 -12.109375 Z M 34.5625 -12.109375 "/></g></g></g><g fill="#ebe5c1" fill-opacity="1"><g transform="translate(99.268923, 194.458149)"><g><path d="M 52.28125 -3.25 C 50.363281 -1.832031 48.007812 -0.769531 45.21875 -0.0625 C 42.4375 0.644531 39.507812 1 36.4375 1 C 28.445312 1 22.269531 -1.035156 17.90625 -5.109375 C 13.539062 -9.191406 11.359375 -15.179688 11.359375 -23.078125 L 11.359375 -50.65625 L 1 -50.65625 L 1 -65.640625 L 11.359375 -65.640625 L 11.359375 -81.984375 L 30.828125 -81.984375 L 30.828125 -65.640625 L 47.546875 -65.640625 L 47.546875 -50.65625 L 30.828125 -50.65625 L 30.828125 -23.328125 C 30.828125 -20.503906 31.550781 -18.320312 33 -16.78125 C 34.457031 -15.238281 36.519531 -14.46875 39.1875 -14.46875 C 42.257812 -14.46875 44.878906 -15.300781 47.046875 -16.96875 Z M 52.28125 -3.25 "/></g></g></g><g fill="#ebe5c1" fill-opacity="1"><g transform="translate(143.441158, 194.458149)"><g><path d="M 40.921875 1 C 33.859375 1 27.515625 -0.472656 21.890625 -3.421875 C 16.273438 -6.378906 11.890625 -10.476562 8.734375 -15.71875 C 5.578125 -20.957031 4 -26.90625 4 -33.5625 C 4 -40.21875 5.578125 -46.164062 8.734375 -51.40625 C 11.890625 -56.644531 16.273438 -60.738281 21.890625 -63.6875 C 27.515625 -66.644531 33.859375 -68.125 40.921875 -68.125 C 47.992188 -68.125 54.316406 -66.644531 59.890625 -63.6875 C 65.460938 -60.738281 69.828125 -56.644531 72.984375 -51.40625 C 76.148438 -46.164062 77.734375 -40.21875 77.734375 -33.5625 C 77.734375 -26.90625 76.148438 -20.957031 72.984375 -15.71875 C 69.828125 -10.476562 65.460938 -6.378906 59.890625 -3.421875 C 54.316406 -0.472656 47.992188 1 40.921875 1 Z M 40.921875 -14.96875 C 45.921875 -14.96875 50.019531 -16.648438 53.21875 -20.015625 C 56.414062 -23.390625 58.015625 -27.90625 58.015625 -33.5625 C 58.015625 -39.21875 56.414062 -43.726562 53.21875 -47.09375 C 50.019531 -50.46875 45.921875 -52.15625 40.921875 -52.15625 C 35.929688 -52.15625 31.8125 -50.46875 28.5625 -47.09375 C 25.320312 -43.726562 23.703125 -39.21875 23.703125 -33.5625 C 23.703125 -27.90625 25.320312 -23.390625 28.5625 -20.015625 C 31.8125 -16.648438 35.929688 -14.96875 40.921875 -14.96875 Z M 40.921875 -14.96875 "/></g></g></g><g fill="#ebe5c1" fill-opacity="1"><g transform="translate(215.065249, 194.458149)"><g><path d="M 27.578125 -58.265625 C 29.910156 -61.515625 33.050781 -63.96875 37 -65.625 C 40.945312 -67.289062 45.5 -68.125 50.65625 -68.125 L 50.65625 -50.15625 C 48.5 -50.320312 47.046875 -50.40625 46.296875 -50.40625 C 40.722656 -50.40625 36.351562 -48.84375 33.1875 -45.71875 C 30.03125 -42.601562 28.453125 -37.925781 28.453125 -31.6875 L 28.453125 0 L 8.984375 0 L 8.984375 -67.125 L 27.578125 -67.125 Z M 27.578125 -58.265625 "/></g></g></g><g fill="#ebe5c1" fill-opacity="1"><g transform="translate(258.739631, 194.458149)"><g><path d="M 17.59375 1.125 C 13.601562 1.125 10.234375 -0.203125 7.484375 -2.859375 C 4.742188 -5.523438 3.375 -8.898438 3.375 -12.984375 C 3.375 -17.140625 4.722656 -20.503906 7.421875 -23.078125 C 10.128906 -25.660156 13.519531 -26.953125 17.59375 -26.953125 C 21.75 -26.953125 25.15625 -25.660156 27.8125 -23.078125 C 30.476562 -20.503906 31.8125 -17.140625 31.8125 -12.984375 C 31.8125 -8.898438 30.457031 -5.523438 27.75 -2.859375 C 25.050781 -0.203125 21.664062 1.125 17.59375 1.125 Z M 17.59375 1.125 "/></g></g></g></g></g></g><g clip-path="url(#2a3790963a)"><path fill="#ebe5c1" d="M 24.402344 54.558594 C 28.207031 55.792969 32.066406 56.238281 35.683594 56.222656 C 35.5 55.203125 35.402344 54.15625 35.402344 53.082031 C 35.402344 48.183594 37.433594 43.761719 40.699219 40.609375 C 37.839844 38.523438 34.457031 36.597656 30.640625 35.355469 C 23.273438 32.964844 15.726562 33.585938 10.691406 34.527344 C 6.875 35.246094 3.882812 36.25 2.40625 36.796875 C 3.277344 38.109375 5.109375 40.679688 7.777344 43.503906 C 11.292969 47.226562 17.035156 52.164062 24.402344 54.558594 Z M 24.402344 54.558594 " fill-opacity="1" fill-rule="nonzero"/></g><g clip-path="url(#6ba4563fbc)"><path fill="#ebe5c1" d="M 52.734375 35.75 C 55.679688 35.75 58.453125 36.484375 60.882812 37.78125 C 61.960938 34.445312 62.726562 30.679688 62.726562 26.710938 C 62.726562 18.964844 59.804688 11.980469 57.351562 7.484375 C 55.492188 4.074219 53.613281 1.539062 52.632812 0.304688 C 51.65625 1.539062 49.777344 4.074219 47.914062 7.484375 C 45.460938 11.980469 42.539062 18.964844 42.539062 26.710938 C 42.539062 30.679688 43.300781 34.457031 44.414062 37.871094 C 46.882812 36.519531 49.71875 35.75 52.734375 35.75 Z M 52.734375 35.75 " fill-opacity="1" fill-rule="nonzero"/></g><path fill="#ebe5c1" d="M 25.234375 32.0625 C 27.335938 32.355469 29.351562 32.8125 31.265625 33.433594 C 35.484375 34.804688 39.183594 36.957031 42.277344 39.257812 C 42.402344 39.160156 42.53125 39.066406 42.664062 38.972656 C 41.40625 35.265625 40.519531 31.097656 40.519531 26.710938 C 40.519531 24.90625 40.667969 23.144531 40.925781 21.441406 C 36.96875 17.746094 32.523438 15.242188 29.089844 13.667969 C 25.558594 12.050781 22.535156 11.144531 21.015625 10.738281 C 20.96875 12.3125 20.980469 15.46875 21.53125 19.316406 C 22.035156 22.84375 23.082031 27.480469 25.234375 32.0625 Z M 25.234375 32.0625 " fill-opacity="1" fill-rule="nonzero"/><path fill="#ebe5c1" d="M 62.652344 38.867188 C 62.804688 38.972656 62.953125 39.082031 63.101562 39.191406 C 66.21875 36.875 69.875 34.773438 74.003906 33.433594 C 75.617188 32.910156 77.300781 32.503906 79.046875 32.210938 C 81.351562 27.289062 82.367188 22.265625 82.804688 18.503906 C 83.253906 14.644531 83.179688 11.488281 83.09375 9.917969 C 81.582031 10.359375 78.585938 11.347656 75.097656 13.058594 C 71.914062 14.621094 67.855469 17.03125 64.175781 20.464844 C 64.535156 22.46875 64.75 24.558594 64.75 26.710938 C 64.75 31.097656 63.867188 35.242188 62.652344 38.867188 Z M 62.652344 38.867188 " fill-opacity="1" fill-rule="nonzero"/><path fill="#ebe5c1" d="M 64.679688 40.523438 C 68 43.683594 70.066406 48.140625 70.066406 53.082031 C 70.066406 54.152344 69.96875 55.203125 69.78125 56.222656 C 73.285156 56.214844 77.097656 55.78125 80.867188 54.554688 C 88.234375 52.164062 93.972656 47.222656 97.492188 43.5 C 100.160156 40.679688 101.992188 38.109375 102.863281 36.796875 C 101.386719 36.246094 98.394531 35.242188 94.574219 34.527344 C 89.542969 33.585938 81.996094 32.960938 74.628906 35.355469 C 70.894531 36.570312 67.5625 38.433594 64.679688 40.523438 Z M 64.679688 40.523438 " fill-opacity="1" fill-rule="nonzero"/><path fill="#ebe5c1" d="M 50.332031 70.25 C 44.480469 69.4375 39.558594 65.703125 37.097656 60.566406 C 34.214844 62.652344 31.320312 65.28125 28.949219 68.546875 C 24.394531 74.8125 22.65625 82.183594 21.996094 87.261719 C 21.496094 91.117188 21.527344 94.269531 21.59375 95.84375 C 23.109375 95.421875 26.121094 94.472656 29.628906 92.808594 C 34.257812 90.613281 40.726562 86.679688 45.28125 80.414062 C 47.621094 77.195312 49.230469 73.675781 50.332031 70.25 Z M 50.332031 70.25 " fill-opacity="1" fill-rule="nonzero"/><g clip-path="url(#8b347d4342)"><path fill="#ebe5c1" d="M 27.3125 67.359375 C 29.9375 63.75 33.148438 60.878906 36.3125 58.644531 C 36.265625 58.511719 36.222656 58.375 36.179688 58.238281 C 35.960938 58.242188 35.738281 58.246094 35.515625 58.246094 C 31.328125 58.246094 27.378906 57.652344 23.777344 56.480469 C 22.050781 55.917969 20.410156 55.226562 18.863281 54.449219 C 14.167969 57.066406 10.4375 60.496094 7.894531 63.257812 C 5.261719 66.117188 3.464844 68.710938 2.613281 70.035156 C 4.09375 70.566406 7.101562 71.527344 10.929688 72.195312 C 14.4375 72.804688 19.15625 73.238281 24.167969 72.613281 C 25.042969 70.828125 26.078125 69.058594 27.3125 67.359375 Z M 27.3125 67.359375 " fill-opacity="1" fill-rule="nonzero"/></g><path fill="#ebe5c1" d="M 76.324219 68.546875 C 74.011719 65.363281 71.203125 62.769531 68.320312 60.671875 C 65.8125 65.808594 60.839844 69.523438 54.945312 70.273438 C 56.035156 73.636719 57.636719 77.171875 59.988281 80.414062 C 64.542969 86.679688 71.011719 90.613281 75.640625 92.808594 C 79.152344 94.472656 82.160156 95.417969 83.679688 95.84375 C 83.742188 94.269531 83.773438 91.113281 83.273438 87.261719 C 82.617188 82.183594 80.875 74.8125 76.324219 68.546875 Z M 76.324219 68.546875 " fill-opacity="1" fill-rule="nonzero"/><g clip-path="url(#a480c783fb)"><path fill="#ebe5c1" d="M 97.601562 62.070312 C 95.144531 59.539062 91.621094 56.441406 87.246094 54.007812 C 85.457031 54.964844 83.535156 55.816406 81.492188 56.480469 C 77.886719 57.648438 73.917969 58.246094 69.699219 58.246094 C 69.558594 58.246094 69.421875 58.242188 69.285156 58.242188 C 69.230469 58.417969 69.171875 58.59375 69.109375 58.769531 C 72.277344 61.015625 75.40625 63.84375 77.957031 67.359375 C 78.992188 68.78125 79.890625 70.257812 80.667969 71.75 C 86.035156 72.414062 91.105469 71.828125 94.804688 71.082031 C 98.613281 70.316406 101.59375 69.273438 103.0625 68.707031 C 102.171875 67.40625 100.308594 64.859375 97.601562 62.070312 Z M 97.601562 62.070312 " fill-opacity="1" fill-rule="nonzero"/></g><g clip-path="url(#e0c00f9c5b)"><path fill="#ebe5c1" d="M 58.355469 81.601562 C 55.746094 78.011719 54.015625 74.09375 52.867188 70.414062 C 52.824219 70.414062 52.777344 70.414062 52.734375 70.414062 C 52.617188 70.414062 52.503906 70.414062 52.390625 70.410156 C 51.230469 74.152344 49.496094 78.050781 46.914062 81.601562 C 45.863281 83.050781 44.71875 84.375 43.519531 85.59375 C 44.554688 90.867188 46.667969 95.472656 48.507812 98.742188 C 50.414062 102.128906 52.324219 104.640625 53.320312 105.859375 C 54.28125 104.613281 56.128906 102.050781 57.941406 98.617188 C 59.59375 95.488281 61.457031 91.171875 62.417969 86.246094 C 60.976562 84.855469 59.597656 83.3125 58.355469 81.601562 Z M 58.355469 81.601562 " fill-opacity="1" fill-rule="nonzero"/></g><path fill="#ebe5c1" d="M 68.328125 53.082031 C 68.328125 54.105469 68.230469 55.121094 68.027344 56.125 C 67.828125 57.128906 67.535156 58.105469 67.140625 59.050781 C 66.75 59.996094 66.269531 60.894531 65.699219 61.746094 C 65.132812 62.597656 64.484375 63.386719 63.761719 64.109375 C 63.035156 64.832031 62.25 65.480469 61.398438 66.050781 C 60.546875 66.617188 59.648438 67.097656 58.703125 67.488281 C 57.753906 67.882812 56.78125 68.179688 55.777344 68.378906 C 54.769531 68.578125 53.757812 68.675781 52.734375 68.675781 C 51.710938 68.675781 50.695312 68.578125 49.691406 68.378906 C 48.6875 68.179688 47.710938 67.882812 46.765625 67.488281 C 45.820312 67.097656 44.921875 66.617188 44.070312 66.050781 C 43.21875 65.480469 42.429688 64.832031 41.707031 64.109375 C 40.980469 63.386719 40.335938 62.597656 39.765625 61.746094 C 39.195312 60.894531 38.714844 59.996094 38.324219 59.050781 C 37.933594 58.105469 37.636719 57.128906 37.4375 56.125 C 37.238281 55.121094 37.136719 54.105469 37.136719 53.082031 C 37.136719 52.058594 37.238281 51.042969 37.4375 50.039062 C 37.636719 49.035156 37.933594 48.058594 38.324219 47.113281 C 38.714844 46.167969 39.195312 45.269531 39.765625 44.417969 C 40.335938 43.566406 40.980469 42.777344 41.707031 42.054688 C 42.429688 41.328125 43.21875 40.683594 44.070312 40.113281 C 44.921875 39.546875 45.820312 39.066406 46.765625 38.671875 C 47.710938 38.28125 48.6875 37.984375 49.691406 37.785156 C 50.695312 37.585938 51.710938 37.484375 52.734375 37.484375 C 53.757812 37.484375 54.769531 37.585938 55.777344 37.785156 C 56.78125 37.984375 57.753906 38.28125 58.703125 38.671875 C 59.648438 39.066406 60.546875 39.546875 61.398438 40.113281 C 62.25 40.683594 63.035156 41.328125 63.761719 42.054688 C 64.484375 42.777344 65.132812 43.566406 65.699219 44.417969 C 66.269531 45.269531 66.75 46.167969 67.140625 47.113281 C 67.535156 48.058594 67.828125 49.035156 68.027344 50.039062 C 68.230469 51.042969 68.328125 52.058594 68.328125 53.082031 Z M 68.328125 53.082031 " fill-opacity="1" fill-rule="nonzero"/><g transform="matrix(1, 0, 0, 1, 38, 35)"><g clip-path="url(#b1474a99df)"><g fill="#7f7537" fill-opacity="1"><g transform="translate(0.851996, 26.116969)"><g><path d="M 11.140625 -0.6875 C 10.734375 -0.382812 10.234375 -0.15625 9.640625 0 C 9.046875 0.144531 8.421875 0.21875 7.765625 0.21875 C 6.066406 0.21875 4.75 -0.210938 3.8125 -1.078125 C 2.882812 -1.953125 2.421875 -3.234375 2.421875 -4.921875 L 2.421875 -10.796875 L 0.21875 -10.796875 L 0.21875 -13.984375 L 2.421875 -13.984375 L 2.421875 -17.46875 L 6.5625 -17.46875 L 6.5625 -13.984375 L 10.125 -13.984375 L 10.125 -10.796875 L 6.5625 -10.796875 L 6.5625 -4.96875 C 6.5625 -4.363281 6.71875 -3.894531 7.03125 -3.5625 C 7.34375 -3.238281 7.78125 -3.078125 8.34375 -3.078125 C 9 -3.078125 9.5625 -3.253906 10.03125 -3.609375 Z M 11.140625 -0.6875 "/></g></g></g><g fill="#7f7537" fill-opacity="1"><g transform="translate(10.265059, 26.116969)"><g><path d="M 10.375 -14.515625 C 11.695312 -14.515625 12.90625 -14.207031 14 -13.59375 C 15.09375 -12.988281 15.945312 -12.128906 16.5625 -11.015625 C 17.1875 -9.910156 17.5 -8.625 17.5 -7.15625 C 17.5 -5.6875 17.1875 -4.394531 16.5625 -3.28125 C 15.945312 -2.175781 15.09375 -1.316406 14 -0.703125 C 12.90625 -0.0859375 11.695312 0.21875 10.375 0.21875 C 8.539062 0.21875 7.101562 -0.359375 6.0625 -1.515625 L 6.0625 5.15625 L 1.921875 5.15625 L 1.921875 -14.3125 L 5.875 -14.3125 L 5.875 -12.65625 C 6.90625 -13.894531 8.40625 -14.515625 10.375 -14.515625 Z M 9.65625 -3.1875 C 10.71875 -3.1875 11.585938 -3.546875 12.265625 -4.265625 C 12.953125 -4.984375 13.296875 -5.945312 13.296875 -7.15625 C 13.296875 -8.363281 12.953125 -9.320312 12.265625 -10.03125 C 11.585938 -10.75 10.71875 -11.109375 9.65625 -11.109375 C 8.59375 -11.109375 7.71875 -10.75 7.03125 -10.03125 C 6.351562 -9.320312 6.015625 -8.363281 6.015625 -7.15625 C 6.015625 -5.945312 6.351562 -4.984375 7.03125 -4.265625 C 7.71875 -3.546875 8.59375 -3.1875 9.65625 -3.1875 Z M 9.65625 -3.1875 "/></g></g></g></g></g></g></g></svg>